<?xml version="1.0" encoding="UTF-8" standalone="no"?>
<!-- Created with Inkscape (http://www.inkscape.org/) -->

<svg
   version="1.1"
   id="svg2"
   xml:space="preserve"
   width="576"
   height="384"
   viewBox="0 0 576 384"
   sodipodi:docname="TestPlot.svg"
   inkscape:version="1.1.1 (3bf5ae0d25, 2021-09-20)"
   xmlns:inkscape="http://www.inkscape.org/namespaces/inkscape"
   xmlns:sodipodi="http://sodipodi.sourceforge.net/DTD/sodipodi-0.dtd"
   xmlns="http://www.w3.org/2000/svg"
   xmlns:svg="http://www.w3.org/2000/svg"><defs
     id="defs6"><clipPath
       clipPathUnits="userSpaceOnUse"
       id="clipPath18"><path
         d="M 54,60.385794 H 388.8 V 180.28262 H 54 Z"
         id="path16" /></clipPath><clipPath
       clipPathUnits="userSpaceOnUse"
       id="clipPath36"><path
         d="M 54,60.385794 H 388.8 V 180.28262 H 54 Z"
         id="path34" /></clipPath><clipPath
       clipPathUnits="userSpaceOnUse"
       id="clipPath50"><path
         d="M 54,60.385794 H 388.8 V 180.28262 H 54 Z"
         id="path48" /></clipPath><clipPath
       clipPathUnits="userSpaceOnUse"
       id="clipPath64"><path
         d="M 54,60.385794 H 388.8 V 180.28262 H 54 Z"
         id="path62" /></clipPath><clipPath
       clipPathUnits="userSpaceOnUse"
       id="clipPath78"><path
         d="M 54,60.385794 H 388.8 V 180.28262 H 54 Z"
         id="path76" /></clipPath><clipPath
       clipPathUnits="userSpaceOnUse"
       id="clipPath92"><path
         d="M 54,60.385794 H 388.8 V 180.28262 H 54 Z"
         id="path90" /></clipPath><clipPath
       clipPathUnits="userSpaceOnUse"
       id="clipPath140"><path
         d="M 54,60.385794 H 388.8 V 180.28262 H 54 Z"
         id="path138" /></clipPath><clipPath
       clipPathUnits="userSpaceOnUse"
       id="clipPath158"><path
         d="M 54,60.385794 H 388.8 V 180.28262 H 54 Z"
         id="path156" /></clipPath><clipPath
       clipPathUnits="userSpaceOnUse"
       id="clipPath190"><path
         d="M 54,60.385794 H 388.8 V 180.28262 H 54 Z"
         id="path188" /></clipPath><clipPath
       clipPathUnits="userSpaceOnUse"
       id="clipPath200"><path
         d="M 54,60.385794 H 388.8 V 180.28262 H 54 Z"
         id="path198" /></clipPath><clipPath
       clipPathUnits="userSpaceOnUse"
       id="clipPath296"><path
         d="M 224.9617,243.27925 H 346.05957 V 253.44 H 224.9617 Z"
         id="path294" /></clipPath><clipPath
       clipPathUnits="userSpaceOnUse"
       id="clipPath306"><path
         d="M 224.9617,243.27925 H 346.05957 V 253.44 H 224.9617 Z"
         id="path304" /></clipPath><clipPath
       clipPathUnits="userSpaceOnUse"
       id="clipPath316"><path
         d="M 224.9617,243.27925 H 346.05957 V 253.44 H 224.9617 Z"
         id="path314" /></clipPath><clipPath
       clipPathUnits="userSpaceOnUse"
       id="clipPath326"><path
         d="M 224.9617,243.27925 H 346.05957 V 253.44 H 224.9617 Z"
         id="path324" /></clipPath><clipPath
       clipPathUnits="userSpaceOnUse"
       id="clipPath344"><path
         d="M 224.9617,231.08636 H 346.05957 V 241.2471 H 224.9617 Z"
         id="path342" /></clipPath><clipPath
       clipPathUnits="userSpaceOnUse"
       id="clipPath354"><path
         d="M 224.9617,231.08636 H 346.05957 V 241.2471 H 224.9617 Z"
         id="path352" /></clipPath><clipPath
       clipPathUnits="userSpaceOnUse"
       id="clipPath364"><path
         d="M 224.9617,231.08636 H 346.05957 V 241.2471 H 224.9617 Z"
         id="path362" /></clipPath><clipPath
       clipPathUnits="userSpaceOnUse"
       id="clipPath374"><path
         d="M 224.9617,231.08636 H 346.05957 V 241.2471 H 224.9617 Z"
         id="path372" /></clipPath><clipPath
       clipPathUnits="userSpaceOnUse"
       id="clipPath392"><path
         d="m 224.9617,218.89346 h 121.09787 v 10.16075 H 224.9617 Z"
         id="path390" /></clipPath><clipPath
       clipPathUnits="userSpaceOnUse"
       id="clipPath402"><path
         d="m 224.9617,218.89346 h 121.09787 v 10.16075 H 224.9617 Z"
         id="path400" /></clipPath><clipPath
       clipPathUnits="userSpaceOnUse"
       id="clipPath412"><path
         d="m 224.9617,218.89346 h 121.09787 v 10.16075 H 224.9617 Z"
         id="path410" /></clipPath><clipPath
       clipPathUnits="userSpaceOnUse"
       id="clipPath422"><path
         d="m 224.9617,218.89346 h 121.09787 v 10.16075 H 224.9617 Z"
         id="path420" /></clipPath><clipPath
       clipPathUnits="userSpaceOnUse"
       id="clipPath440"><path
         d="m 224.9617,206.70056 h 121.09787 v 10.16075 H 224.9617 Z"
         id="path438" /></clipPath><clipPath
       clipPathUnits="userSpaceOnUse"
       id="clipPath450"><path
         d="m 224.9617,206.70056 h 121.09787 v 10.16075 H 224.9617 Z"
         id="path448" /></clipPath><clipPath
       clipPathUnits="userSpaceOnUse"
       id="clipPath460"><path
         d="m 224.9617,206.70056 h 121.09787 v 10.16075 H 224.9617 Z"
         id="path458" /></clipPath><clipPath
       clipPathUnits="userSpaceOnUse"
       id="clipPath470"><path
         d="m 224.9617,206.70056 h 121.09787 v 10.16075 H 224.9617 Z"
         id="path468" /></clipPath><clipPath
       clipPathUnits="userSpaceOnUse"
       id="clipPath488"><path
         d="m 224.9617,194.50766 h 121.09787 v 10.16075 H 224.9617 Z"
         id="path486" /></clipPath><clipPath
       clipPathUnits="userSpaceOnUse"
       id="clipPath498"><path
         d="m 224.9617,194.50766 h 121.09787 v 10.16075 H 224.9617 Z"
         id="path496" /></clipPath><clipPath
       clipPathUnits="userSpaceOnUse"
       id="clipPath508"><path
         d="m 224.9617,194.50766 h 121.09787 v 10.16075 H 224.9617 Z"
         id="path506" /></clipPath><clipPath
       clipPathUnits="userSpaceOnUse"
       id="clipPath518"><path
         d="m 224.9617,194.50766 h 121.09787 v 10.16075 H 224.9617 Z"
         id="path516" /></clipPath></defs><sodipodi:namedview
     id="namedview4"
     pagecolor="#505050"
     bordercolor="#eeeeee"
     borderopacity="1"
     inkscape:pageshadow="0"
     inkscape:pageopacity="0"
     inkscape:pagecheckerboard="0"
     showgrid="false"
     inkscape:zoom="1.8628472"
     inkscape:cx="288"
     inkscape:cy="192.17894"
     inkscape:window-width="1920"
     inkscape:window-height="1018"
     inkscape:window-x="-6"
     inkscape:window-y="-6"
     inkscape:window-maximized="1"
     inkscape:current-layer="g8" /><g
     id="g8"
     inkscape:groupmode="layer"
     inkscape:label="TestPlot"
     transform="matrix(1.3333333,0,0,-1.3333333,0,384)"><g
       id="g12"><g
         id="g14"
         clip-path="url(#clipPath18)"><path
           d="M 54,60.385794 V 180.28262"
           style="fill:none;stroke:#666666;stroke-width:0.5;stroke-linecap:square;stroke-linejoin:round;stroke-miterlimit:10;stroke-dasharray:none;stroke-opacity:1"
           id="path20" /></g></g><g
       id="g22"><g
         id="g24"
         transform="translate(45.875,46.901419)"><text
           transform="scale(1,-1)"
           style="font-variant:normal;font-weight:normal;font-size:10px;font-family:Garamond;-inkscape-font-specification:Garamond;writing-mode:lr-tb;fill:#000000;fill-opacity:1;fill-rule:nonzero;stroke:none"
           id="text28"><tspan
             x="0 4.6900001 6.8800001 11.57"
             y="0"
             sodipodi:role="line"
             id="tspan26">0.00</tspan></text></g></g><g
       id="g30"><g
         id="g32"
         clip-path="url(#clipPath36)"><path
           d="M 121.8717,60.385794 V 180.28262"
           style="fill:none;stroke:#666666;stroke-width:0.5;stroke-linecap:square;stroke-linejoin:round;stroke-miterlimit:10;stroke-dasharray:none;stroke-opacity:1"
           id="path38" /></g></g><g
       id="g40"><g
         id="g42"
         transform="translate(120.6217,46.901419)" /></g><g
       id="g44"><g
         id="g46"
         clip-path="url(#clipPath50)"><path
           d="M 189.74341,60.385794 V 180.28262"
           style="fill:none;stroke:#666666;stroke-width:0.5;stroke-linecap:square;stroke-linejoin:round;stroke-miterlimit:10;stroke-dasharray:none;stroke-opacity:1"
           id="path52" /></g></g><g
       id="g54"><g
         id="g56"
         transform="translate(188.49341,46.901419)" /></g><g
       id="g58"><g
         id="g60"
         clip-path="url(#clipPath64)"><path
           d="M 257.61511,60.385794 V 180.28262"
           style="fill:none;stroke:#666666;stroke-width:0.5;stroke-linecap:square;stroke-linejoin:round;stroke-miterlimit:10;stroke-dasharray:none;stroke-opacity:1"
           id="path66" /></g></g><g
       id="g68"><g
         id="g70"
         transform="translate(256.36511,46.901419)" /></g><g
       id="g72"><g
         id="g74"
         clip-path="url(#clipPath78)"><path
           d="M 325.48682,60.385794 V 180.28262"
           style="fill:none;stroke:#666666;stroke-width:0.5;stroke-linecap:square;stroke-linejoin:round;stroke-miterlimit:10;stroke-dasharray:none;stroke-opacity:1"
           id="path80" /></g></g><g
       id="g82"><g
         id="g84"
         transform="translate(324.23682,46.901419)" /></g><g
       id="g86"><g
         id="g88"
         clip-path="url(#clipPath92)"><path
           d="M 67.574341,60.385794 V 180.28262"
           style="fill:none;stroke:#666666;stroke-width:0.25;stroke-linecap:butt;stroke-linejoin:round;stroke-miterlimit:10;stroke-dasharray:0.25, 0.4125;stroke-dashoffset:0;stroke-opacity:1"
           id="path94" /><path
           d="M 81.148682,60.385794 V 180.28262"
           style="fill:none;stroke:#666666;stroke-width:0.25;stroke-linecap:butt;stroke-linejoin:round;stroke-miterlimit:10;stroke-dasharray:0.25, 0.4125;stroke-dashoffset:0;stroke-opacity:1"
           id="path96" /><path
           d="M 94.723023,60.385794 V 180.28262"
           style="fill:none;stroke:#666666;stroke-width:0.25;stroke-linecap:butt;stroke-linejoin:round;stroke-miterlimit:10;stroke-dasharray:0.25, 0.4125;stroke-dashoffset:0;stroke-opacity:1"
           id="path98" /><path
           d="M 108.29736,60.385794 V 180.28262"
           style="fill:none;stroke:#666666;stroke-width:0.25;stroke-linecap:butt;stroke-linejoin:round;stroke-miterlimit:10;stroke-dasharray:0.25, 0.4125;stroke-dashoffset:0;stroke-opacity:1"
           id="path100" /><path
           d="M 135.44605,60.385794 V 180.28262"
           style="fill:none;stroke:#666666;stroke-width:0.25;stroke-linecap:butt;stroke-linejoin:round;stroke-miterlimit:10;stroke-dasharray:0.25, 0.4125;stroke-dashoffset:0;stroke-opacity:1"
           id="path102" /><path
           d="M 149.02039,60.385794 V 180.28262"
           style="fill:none;stroke:#666666;stroke-width:0.25;stroke-linecap:butt;stroke-linejoin:round;stroke-miterlimit:10;stroke-dasharray:0.25, 0.4125;stroke-dashoffset:0;stroke-opacity:1"
           id="path104" /><path
           d="M 162.59473,60.385794 V 180.28262"
           style="fill:none;stroke:#666666;stroke-width:0.25;stroke-linecap:butt;stroke-linejoin:round;stroke-miterlimit:10;stroke-dasharray:0.25, 0.4125;stroke-dashoffset:0;stroke-opacity:1"
           id="path106" /><path
           d="M 176.16907,60.385794 V 180.28262"
           style="fill:none;stroke:#666666;stroke-width:0.25;stroke-linecap:butt;stroke-linejoin:round;stroke-miterlimit:10;stroke-dasharray:0.25, 0.4125;stroke-dashoffset:0;stroke-opacity:1"
           id="path108" /><path
           d="M 203.31775,60.385794 V 180.28262"
           style="fill:none;stroke:#666666;stroke-width:0.25;stroke-linecap:butt;stroke-linejoin:round;stroke-miterlimit:10;stroke-dasharray:0.25, 0.4125;stroke-dashoffset:0;stroke-opacity:1"
           id="path110" /><path
           d="M 216.89209,60.385794 V 180.28262"
           style="fill:none;stroke:#666666;stroke-width:0.25;stroke-linecap:butt;stroke-linejoin:round;stroke-miterlimit:10;stroke-dasharray:0.25, 0.4125;stroke-dashoffset:0;stroke-opacity:1"
           id="path112" /><path
           d="M 230.46643,60.385794 V 180.28262"
           style="fill:none;stroke:#666666;stroke-width:0.25;stroke-linecap:butt;stroke-linejoin:round;stroke-miterlimit:10;stroke-dasharray:0.25, 0.4125;stroke-dashoffset:0;stroke-opacity:1"
           id="path114" /><path
           d="M 244.04077,60.385794 V 180.28262"
           style="fill:none;stroke:#666666;stroke-width:0.25;stroke-linecap:butt;stroke-linejoin:round;stroke-miterlimit:10;stroke-dasharray:0.25, 0.4125;stroke-dashoffset:0;stroke-opacity:1"
           id="path116" /><path
           d="M 271.18945,60.385794 V 180.28262"
           style="fill:none;stroke:#666666;stroke-width:0.25;stroke-linecap:butt;stroke-linejoin:round;stroke-miterlimit:10;stroke-dasharray:0.25, 0.4125;stroke-dashoffset:0;stroke-opacity:1"
           id="path118" /><path
           d="M 284.7638,60.385794 V 180.28262"
           style="fill:none;stroke:#666666;stroke-width:0.25;stroke-linecap:butt;stroke-linejoin:round;stroke-miterlimit:10;stroke-dasharray:0.25, 0.4125;stroke-dashoffset:0;stroke-opacity:1"
           id="path120" /><path
           d="M 298.33814,60.385794 V 180.28262"
           style="fill:none;stroke:#666666;stroke-width:0.25;stroke-linecap:butt;stroke-linejoin:round;stroke-miterlimit:10;stroke-dasharray:0.25, 0.4125;stroke-dashoffset:0;stroke-opacity:1"
           id="path122" /><path
           d="M 311.91248,60.385794 V 180.28262"
           style="fill:none;stroke:#666666;stroke-width:0.25;stroke-linecap:butt;stroke-linejoin:round;stroke-miterlimit:10;stroke-dasharray:0.25, 0.4125;stroke-dashoffset:0;stroke-opacity:1"
           id="path124" /><path
           d="M 339.06116,60.385794 V 180.28262"
           style="fill:none;stroke:#666666;stroke-width:0.25;stroke-linecap:butt;stroke-linejoin:round;stroke-miterlimit:10;stroke-dasharray:0.25, 0.4125;stroke-dashoffset:0;stroke-opacity:1"
           id="path126" /><path
           d="M 352.6355,60.385794 V 180.28262"
           style="fill:none;stroke:#666666;stroke-width:0.25;stroke-linecap:butt;stroke-linejoin:round;stroke-miterlimit:10;stroke-dasharray:0.25, 0.4125;stroke-dashoffset:0;stroke-opacity:1"
           id="path128" /><path
           d="M 366.20984,60.385794 V 180.28262"
           style="fill:none;stroke:#666666;stroke-width:0.25;stroke-linecap:butt;stroke-linejoin:round;stroke-miterlimit:10;stroke-dasharray:0.25, 0.4125;stroke-dashoffset:0;stroke-opacity:1"
           id="path130" /><path
           d="M 379.78418,60.385794 V 180.28262"
           style="fill:none;stroke:#666666;stroke-width:0.25;stroke-linecap:butt;stroke-linejoin:round;stroke-miterlimit:10;stroke-dasharray:0.25, 0.4125;stroke-dashoffset:0;stroke-opacity:1"
           id="path132" /></g></g><g
       id="g134"><g
         id="g136"
         clip-path="url(#clipPath140)"><path
           d="M 54,120.33421 H 388.8"
           style="fill:none;stroke:#666666;stroke-width:0.5;stroke-linecap:square;stroke-linejoin:round;stroke-miterlimit:10;stroke-dasharray:none;stroke-opacity:1"
           id="path142" /></g></g><g
       id="g144"><g
         id="g146"
         transform="translate(40.9375,117.09202)"><text
           transform="scale(1,-1)"
           style="font-variant:normal;font-weight:normal;font-size:10px;font-family:Garamond;-inkscape-font-specification:Garamond;writing-mode:lr-tb;fill:#000000;fill-opacity:1;fill-rule:nonzero;stroke:none"
           id="text150"><tspan
             x="0 4.6900001 6.8800001"
             y="0"
             sodipodi:role="line"
             id="tspan148">0.0</tspan></text></g></g><g
       id="g152"><g
         id="g154"
         clip-path="url(#clipPath158)"><path
           d="M 54,62.783731 H 388.8"
           style="fill:none;stroke:#666666;stroke-width:0.25;stroke-linecap:butt;stroke-linejoin:round;stroke-miterlimit:10;stroke-dasharray:0.25, 0.4125;stroke-dashoffset:0;stroke-opacity:1"
           id="path160" /><path
           d="M 54,77.17135 H 388.8"
           style="fill:none;stroke:#666666;stroke-width:0.25;stroke-linecap:butt;stroke-linejoin:round;stroke-miterlimit:10;stroke-dasharray:0.25, 0.4125;stroke-dashoffset:0;stroke-opacity:1"
           id="path162" /><path
           d="M 54,91.558968 H 388.8"
           style="fill:none;stroke:#666666;stroke-width:0.25;stroke-linecap:butt;stroke-linejoin:round;stroke-miterlimit:10;stroke-dasharray:0.25, 0.4125;stroke-dashoffset:0;stroke-opacity:1"
           id="path164" /><path
           d="M 54,105.94659 H 388.8"
           style="fill:none;stroke:#666666;stroke-width:0.25;stroke-linecap:butt;stroke-linejoin:round;stroke-miterlimit:10;stroke-dasharray:0.25, 0.4125;stroke-dashoffset:0;stroke-opacity:1"
           id="path166" /><path
           d="M 54,134.72182 H 388.8"
           style="fill:none;stroke:#666666;stroke-width:0.25;stroke-linecap:butt;stroke-linejoin:round;stroke-miterlimit:10;stroke-dasharray:0.25, 0.4125;stroke-dashoffset:0;stroke-opacity:1"
           id="path168" /><path
           d="M 54,149.10944 H 388.8"
           style="fill:none;stroke:#666666;stroke-width:0.25;stroke-linecap:butt;stroke-linejoin:round;stroke-miterlimit:10;stroke-dasharray:0.25, 0.4125;stroke-dashoffset:0;stroke-opacity:1"
           id="path170" /><path
           d="M 54,163.49706 H 388.8"
           style="fill:none;stroke:#666666;stroke-width:0.25;stroke-linecap:butt;stroke-linejoin:round;stroke-miterlimit:10;stroke-dasharray:0.25, 0.4125;stroke-dashoffset:0;stroke-opacity:1"
           id="path172" /><path
           d="M 54,177.88468 H 388.8"
           style="fill:none;stroke:#666666;stroke-width:0.25;stroke-linecap:butt;stroke-linejoin:round;stroke-miterlimit:10;stroke-dasharray:0.25, 0.4125;stroke-dashoffset:0;stroke-opacity:1"
           id="path174" /></g></g><g
       id="g176"><g
         id="g178"
         transform="rotate(90,-22.053822,56.428822)"><text
           transform="scale(1,-1)"
           style="font-variant:normal;font-weight:normal;font-size:10px;font-family:Garamond;-inkscape-font-specification:Garamond;writing-mode:lr-tb;fill:#000000;fill-opacity:1;fill-rule:nonzero;stroke:none"
           id="text182"><tspan
             x="0 6.3499999 11.45 15.51 20.610001 25.709999 29.879999 32.169998 34.669998 39.77 44.669998 47.59 52.689999 57.59 60.509998 62.700001 65.199997 69.702499 74.802498 77.092499 80.012497"
             y="0"
             sodipodi:role="line"
             id="tspan180">Channel output, volts</tspan></text></g></g><g
       id="g184"><g
         id="g186"
         clip-path="url(#clipPath190)"><path
           d="m 54,122.13266 0.279233,-2.39794 0.279232,2.39794 0.279233,-1.19897 h 0.279233 l 0.279232,1.79845 0.279233,-2.99742 0.279233,3.59691 0.279233,-3.59691 0.279232,5.39536 0.279233,-1.79845 0.279233,-3.59691 0.279232,0.59949 0.279233,4.19638 0.279233,-4.79587 0.279232,4.19639 0.279233,-4.19639 0.279233,2.99742 0.279232,-1.79845 0.558466,4.19639 0.279233,-6.59433 0.279232,9.59175 0.279233,-7.79329 0.279233,0.59948 0.279232,2.99742 0.279233,-3.5969 0.279233,4.79587 0.279232,1.79845 0.279233,-5.99484 0.279233,1.19897 0.279233,4.79587 0.279232,-2.99742 0.279233,3.5969 0.279233,-1.19896 0.279232,2.99742 0.279233,-1.19897 0.279233,4.79587 0.279232,-0.59948 0.279233,7.19381 0.279233,-1.19897 0.279232,12.58916 0.279233,-1.19896 0.279233,11.39019 0.279233,1.79846 0.279232,-5.39536 0.279233,1.79845 0.279233,-12.58916 0.279232,0.59948 0.279233,-13.78813 0.279233,0.59948 0.279232,-6.59433 0.279233,1.19897 0.279233,-2.39793 0.279232,2.39793 0.279233,-2.99742 0.279233,4.79588 0.279233,-5.39536 0.279232,0.59948 0.279233,4.79588 0.279233,-3.59691 0.279232,4.79587 0.279233,-2.99742 0.279233,4.79588 h 0.279232 l 0.279233,-7.19381 0.279233,1.19896 0.279232,-24.57884 0.279233,-0.59949 0.279233,-31.772656 0.279233,1.198969 0.279232,-23.979365 0.279233,-0.599484 0.279233,17.984523 h 0.279232 l 0.279233,26.377301 0.279233,-2.99742 0.279232,16.785552 0.279233,-3.5969 0.279233,8.39278 0.279233,-4.79588 0.279232,9.59175 0.279233,-2.39794 0.279233,3.59691 0.279232,-1.19897 0.279233,2.39793 0.279233,-1.19896 0.279232,2.99742 0.279233,0.59948 0.279233,-2.99742 h 0.279232 l 0.279233,3.59691 0.279233,-2.99743 0.279233,3.59691 0.279232,-2.39794 0.279233,4.19639 0.279233,-4.79587 0.279232,5.39536 0.279233,-4.79588 0.279233,3.59691 0.279232,-2.39794 0.279233,1.79845 h 0.279233 l 0.279232,-1.79845 0.279233,3.59691 0.279233,-4.19639 h 0.279233 l 0.279232,3.5969 0.279233,-4.19639 0.279233,4.79588 0.279232,0.59948 0.279233,-5.39536 0.279233,-0.59948 0.279232,6.59432 0.279233,-5.39535 0.279233,2.99742 0.279232,0.59948 0.279233,-2.99742 0.279233,0.59949 0.279233,1.19896 0.279232,-1.79845 0.279233,3.59691 0.279233,-3.59691 0.279232,2.99742 0.279233,-2.99742 0.279233,3.59691 0.279232,-4.19639 0.279233,5.39535 0.279233,-4.79587 0.279233,4.79587 0.279232,-1.19896 0.279233,-4.19639 0.279233,2.99742 0.279232,-2.39794 0.279233,2.39794 0.279233,-1.79845 0.279232,1.79845 0.279233,-1.79845 0.279233,2.39793 0.279232,-2.99742 0.279233,-0.59948 0.279233,4.19639 0.279233,-4.19639 0.279232,4.79587 h 0.279233 l 0.279233,-5.39536 0.279232,0.59949 0.279233,5.39535 0.279233,-4.79587 0.279232,2.99742 0.279233,-0.59948 0.279233,-2.39794 0.279232,0.59949 0.279233,1.79845 0.279233,-2.99742 0.279233,3.5969 0.279232,-2.99742 0.279233,3.59691 0.279233,-3.59691 0.279232,4.19639 0.279233,-4.79587 0.279233,4.79587 0.279232,1.79845 0.279233,-8.99226 0.279233,2.39794 0.279228,3.5969 0.27924,-0.59948 0.27923,-1.79845 h 0.27923 l 0.27924,2.39793 0.27923,-3.5969 0.27923,4.19639 0.27923,-3.59691 0.27924,3.59691 0.27923,-4.19639 0.27923,4.79587 0.27923,-4.79587 0.27924,4.79587 0.27923,-4.79587 0.27923,8.39277 0.55847,-7.79329 0.27923,2.99742 0.27923,-2.39793 h 0.27924 l 0.27923,2.39793 0.27923,0.59949 0.27923,-3.59691 0.27924,-0.59948 0.27923,4.19639 0.27923,-3.59691 0.27923,4.19639 0.27924,-4.79587 0.27923,5.99484 0.27923,-5.99484 0.27923,5.99484 0.27924,-4.79587 0.27923,4.19638 0.27923,-0.59948 0.27924,-4.19639 0.27923,1.19897 0.27923,1.79845 0.27923,-0.59948 0.27924,-1.19897 0.27923,1.79845 0.55847,-2.99742 0.27923,4.79587 0.27923,-0.59948 0.27923,-4.19639 0.27924,5.39536 0.27923,-5.99484 0.27923,1.19897 0.27923,5.39535 0.27924,-1.19897 0.27923,-2.99742 0.27923,1.19897 0.27924,2.39794 0.27923,-1.79845 0.27923,2.39793 0.27923,-2.39793 0.27924,5.99484 0.27923,-3.59691 0.27923,4.19639 0.27923,-1.19897 0.27924,6.59433 0.27923,-3.59691 0.27923,8.39278 0.27923,-2.39794 0.27924,14.38762 0.27923,-1.19897 0.27923,10.19123 0.27924,0.59949 0.27923,-4.19639 h 0.27923 l 0.27923,-12.58917 0.27924,1.19897 0.27923,-13.78813 0.27923,1.19897 0.27923,-6.59433 0.27924,2.99742 0.27923,-4.19639 0.27923,-0.59948 0.27923,4.19639 0.27924,-4.79588 0.27923,5.39536 0.27923,-4.19639 0.27923,4.79588 0.27924,-2.39794 0.27923,2.99742 0.27923,0.59948 0.27924,-2.39793 0.27923,2.39793 0.27923,-5.39535 0.27923,1.19896 0.27924,-28.175748 0.27923,0.599484 0.27923,-31.772658 0.27924,1.198968 0.27923,-22.180912 0.27923,-0.599484 0.27923,21.581428 h 0.27924 l 0.27923,23.979364 0.27923,-1.198968 0.27923,13.788136 0.27924,-1.79845 0.27923,7.79329 0.27923,-1.19897 0.27923,4.19639 0.27924,-1.19897 0.27923,4.19639 0.27923,-1.79845 0.27923,3.5969 0.27924,-2.99742 0.27923,4.79588 0.27923,-4.19639 0.27924,5.39535 0.27923,-4.79587 0.27923,5.39536 0.27923,-4.19639 0.27924,3.5969 h 0.27923 l 0.27923,-2.99742 0.27923,2.39794 0.27924,-2.99742 0.27923,3.5969 0.27923,-2.39793 0.27924,-1.19897 0.27923,4.79587 0.27923,-3.5969 0.27923,3.5969 0.27924,1.19897 0.27923,-5.99484 0.27923,1.19897 0.27923,2.99742 0.27924,0.59948 0.27923,-3.5969 0.27923,-0.59949 0.27923,4.19639 0.27924,-4.19639 0.27923,4.19639 0.27923,-2.99742 0.27924,1.79845 0.27923,-1.79845 0.27923,2.39794 0.27923,-2.99742 0.27924,4.19639 0.27923,-3.59691 0.27923,4.79587 0.27923,-5.39535 0.27924,4.79587 0.27923,-5.39536 0.27923,5.39536 0.27924,-4.19639 0.27923,3.59691 0.27923,-3.59691 0.27923,3.59691 h 0.27924 l 0.27923,-3.59691 0.27923,3.59691 0.27923,-3.59691 h 0.27924 l 0.27923,4.19639 0.27923,-5.39536 0.27924,4.79588 0.27923,-4.19639 0.27923,5.39535 0.27923,-0.59948 0.27924,-4.79587 0.27923,2.99742 0.27923,-2.39794 0.27923,3.59691 0.27924,-4.19639 0.27923,2.99742 0.27923,-1.79845 h 0.27924 l 0.27923,1.79845 0.27923,-2.39794 0.27923,2.99742 0.27924,-3.5969 0.27923,5.99484 0.27923,-6.59433 0.27923,4.79588 0.27924,-4.19639 0.27923,5.39535 0.27923,-5.39535 0.27923,4.79587 0.27924,-3.5969 0.27923,4.19638 0.27923,-6.59432 0.27924,5.99484 0.27923,-3.5969 0.27923,1.79845 0.27923,-3.59691 0.27924,5.99484 0.27923,-1.19896 0.27923,-4.19639 0.27923,4.19639 0.27924,-4.19639 0.27923,3.5969 0.27923,-3.5969 h 0.27924 l 0.27923,4.79587 0.27923,-0.59948 0.27923,-4.19639 0.27924,-0.59949 0.27923,5.99484 0.27923,-4.79587 0.27923,2.39794 0.27924,-1.79845 0.27923,1.79845 0.27923,-1.79845 0.27923,2.39793 0.27924,-5.39536 0.27923,6.59433 0.27923,-4.19639 0.27924,2.99742 0.27923,1.19897 0.27923,-4.19639 0.27923,-0.59948 0.27924,4.79587 0.27923,-6.59433 0.27923,8.39278 0.27923,-5.39535 0.27924,2.99742 0.27923,-2.39794 0.27923,1.79845 0.27923,-2.99742 0.27924,5.39536 0.27923,-1.19897 0.27923,-5.39536 0.27924,1.19897 0.27923,4.19639 0.27923,-4.19639 0.27923,5.39536 h 0.27924 l 0.27923,-5.39536 0.27923,0.59949 0.27923,4.79587 0.27924,-3.59691 0.27923,2.99742 0.27923,-2.99742 0.27924,3.59691 0.27923,-2.39794 0.27923,3.59691 0.27923,-4.19639 0.27924,5.99484 0.27923,-4.19639 0.27923,4.79587 0.27924,-2.39793 0.27923,4.79587 0.27923,-1.79845 0.27923,7.19381 0.27923,-3.59691 0.27924,11.3902 0.27923,-1.79845 0.27923,13.18865 0.27924,-1.19897 0.27923,7.19381 h 0.27923 l 0.27923,-7.79329 0.27924,1.19896 0.27923,-16.18607 0.27923,1.79845 0.27923,-11.39019 0.27924,2.99742 0.27923,-6.59433 h 0.27923 l 0.27924,4.79588 0.27923,-6.59433 0.27923,5.99484 0.27923,-1.19897 0.27924,-3.5969 0.55846,4.19639 0.27923,-1.19897 0.27924,2.99742 0.27923,0.59948 0.27923,-3.5969 0.27924,3.5969 0.27923,-14.38762 0.27923,1.19897 0.27923,-34.170591 0.27924,1.198968 0.27923,-28.775237 0.27923,1.198968 0.27923,-11.989682 0.27924,7.193809 0.27923,27.576269 h 0.27923 l 0.27923,17.984524 0.27924,-0.599485 0.27923,9.591747 0.27923,-1.19897 0.27924,5.99484 0.27923,-2.39793 0.27923,4.79587 0.27923,-1.79845 0.27924,4.79587 0.27923,-2.99742 0.27923,4.79587 0.27923,-4.19639 0.27924,5.99484 0.27923,-4.79587 0.27923,3.59691 0.27924,0.59948 0.27923,-2.99742 0.27923,1.19897 0.27923,1.79845 0.27924,-1.79845 0.55846,4.19639 0.27923,-6.59433 0.27924,1.79845 0.27923,4.19639 0.27923,-5.39536 0.27923,6.59433 h 0.27924 l 0.27923,-5.99484 0.27923,5.99484 0.27924,-5.39536 0.27923,2.99742 0.27923,-2.39793 h 0.27923 l 0.27924,2.39793 h 0.27923 l 0.55846,-3.5969 0.27924,7.19381 0.27923,-6.59433 0.27923,4.19639 0.27924,-3.5969 0.27923,4.19639 0.27923,0.59948 0.27923,-4.79587 0.27924,4.19639 0.27923,-4.79588 0.27923,3.59691 0.27923,-2.39794 0.27924,0.59949 0.27923,1.79845 0.27923,-1.79845 0.27923,1.79845 h 0.27924 l 0.27923,-2.39794 0.27923,3.59691 0.27924,-3.59691 0.27923,-0.59948 0.27923,4.19639 0.27923,-3.59691 0.27924,4.79587 h 0.27923 l 0.27923,-6.59432 0.27923,1.19897 0.27924,4.19639 0.27923,-3.59691 0.27923,2.39794 0.27923,-0.59949 0.27924,-1.19896 0.27923,-2.39794 0.27923,4.79587 0.27924,-2.99742 0.27923,2.99742 0.27923,-4.19639 0.27923,4.19639 0.27924,-3.5969 0.27923,4.79587 0.27923,0.59948 0.27923,-6.59432 0.27924,1.79845 0.27923,3.59691 0.27923,-1.19897 0.27924,-2.39794 0.27923,2.39794 0.27923,-1.79845 0.27923,2.39793 0.27924,-2.39793 h 0.27923 l 0.27923,1.79845 0.27923,-2.99742 0.27924,4.79587 0.27923,-4.79587 0.27923,5.39535 0.27923,0.59949 0.27924,-6.59433 0.27923,0.59949 0.27923,4.79587 0.27924,-4.19639 0.27923,3.59691 0.27923,-0.59949 0.27923,-2.99742 0.27924,2.39794 0.55846,-4.19639 0.27923,5.39536 0.27924,-4.19639 0.27923,4.19639 h 0.27923 l 0.27924,-4.79588 0.27923,5.39536 0.27923,-4.19639 0.27923,-1.79845 0.27924,5.39536 0.27923,-4.19639 0.27923,4.79587 0.27923,-4.19639 0.27924,3.59691 0.55846,-2.39794 0.27924,1.19897 0.27923,-1.79845 0.27923,2.39793 0.27923,-2.39793 0.27924,-0.59949 0.27923,4.79587 0.27923,-4.19638 0.27923,3.5969 0.27924,0.59948 0.27923,-5.39535 0.27923,0.59948 0.27923,4.19639 0.27924,-4.19639 0.27923,3.59691 0.27923,-0.59949 0.27924,-1.79845 0.27923,0.59948 0.55846,3.59691 0.27924,-4.19639 0.27923,0.59948 0.27923,3.59691 0.27923,-4.19639 0.27924,6.59432 0.27923,-4.79587 0.27923,5.39536 0.27924,-3.59691 0.27923,4.19639 0.27923,-1.19897 0.27923,4.19639 0.27924,-0.59948 0.27923,5.99484 0.27923,-0.59948 0.27923,10.19123 0.27924,-1.19897 0.27923,13.18865 0.27923,-0.59949 0.27923,4.19639 0.27924,-1.79845 0.27923,-10.79071 0.27923,1.79845 0.27924,-15.58659 0.27923,1.19897 0.27923,-8.99226 0.27923,1.79845 0.27924,-3.5969 0.27923,-1.19897 0.27923,2.99742 0.27923,-0.59949 0.27924,-1.79845 0.27923,0.59949 0.27923,3.5969 0.27924,-2.99742 0.27923,4.19639 0.27923,-3.59691 0.27923,5.99485 0.27924,1.19896 0.27923,-7.79329 0.27923,4.79587 0.27923,-21.58142 0.27924,1.79845 0.27923,-34.170596 0.27923,1.798452 0.27923,-26.377301 0.27924,-4.795873 0.27923,10.19123 0.27923,-1.198968 0.27924,28.775237 0.27923,-0.599484 0.27923,16.785553 0.27923,-2.397934 0.27924,10.191234 0.27923,-2.39794 0.27923,6.59432 0.27923,-3.5969 0.27924,5.39536 0.27923,-2.99742 0.27923,5.39535 0.27924,-3.5969 0.27923,4.19639 0.27923,-2.39794 0.27923,2.39794 0.27924,-1.79846 0.27923,2.99743 0.27923,-2.39794 0.27924,4.19639 0.27923,-4.19639 0.27923,4.19639 h 0.27923 l 0.55847,-5.99484 0.27923,11.39019 0.27923,-10.19123 0.27924,6.59433 0.27923,-5.39536 0.27923,4.19639 0.27923,0.59949 0.27924,-4.79588 0.27923,5.39536 0.27923,-4.79587 h 0.27923 l 0.27924,4.19639 h 0.27923 l 0.27923,-4.19639 0.27924,5.39535 0.27923,-5.99484 0.27923,5.39536 0.27923,-7.19381 0.27924,1.79845 0.27923,6.59433 0.27923,-1.19897 0.27923,-5.39536 0.27924,4.79588 0.27923,-3.59691 0.27923,3.59691 0.27923,-5.39536 0.55847,4.19639 h 0.27923 l 0.27924,-3.59691 0.27923,0.59949 0.27923,4.19639 0.27923,-4.19639 0.27924,3.5969 h 0.27923 l 0.27923,-2.99742 0.27923,4.19639 0.27924,-4.19639 0.27923,2.99742 0.27923,-2.99742 0.27924,4.79587 0.27923,-5.99484 0.55846,3.59691 0.27924,0.59948 0.27923,-2.99742 h 0.27923 l 0.27923,4.19639 0.27924,-4.79587 0.27923,5.39535 0.27923,-5.99484 0.27923,6.59433 0.27924,-1.79845 0.27923,-4.19639 0.27923,-0.59949 0.27924,5.39536 0.27923,-4.19639 0.27923,2.99742 0.27923,-2.39793 0.27924,1.79845 h 0.27923 l 0.27923,-2.39794 0.27923,3.59691 0.27924,-3.59691 0.27923,2.99742 0.27923,-2.99742 0.27924,2.99742 0.27923,-2.99742 0.27923,2.99742 0.27923,-3.5969 0.27924,-0.59949 0.27923,5.39536 0.27923,-5.39536 0.27924,5.39536 0.27923,-4.19639 0.27923,2.39794 0.27923,-1.79845 0.27923,1.79845 h 0.27924 l 0.27923,-1.79845 0.27923,3.5969 0.27924,-4.79587 h 0.27923 l 0.27923,4.19639 0.27923,-4.19639 0.27924,5.39535 0.27923,-5.39535 0.27923,5.99484 0.27923,-5.39536 0.27924,2.99742 0.27923,-3.5969 0.27923,4.19639 0.27924,-2.39794 0.27923,1.19897 0.27923,1.79845 0.27923,-4.19639 0.27924,4.79587 0.27923,-5.99484 0.27923,5.39536 0.27923,-4.79587 0.27924,4.19639 0.27923,-4.19639 0.27923,1.19897 0.27924,4.19638 0.27923,-4.79587 0.27923,3.59691 h 0.27923 l 0.27924,-3.59691 0.27923,1.19897 0.27923,1.79845 0.27923,-1.79845 0.27924,2.39794 0.27923,-2.39794 0.27923,2.99742 0.27923,-2.99742 0.27924,2.99742 0.27923,-2.99742 0.27923,3.5969 0.27924,1.19897 0.27923,-4.79587 0.27923,0.59948 0.27923,5.99484 0.27924,-5.39535 0.27923,5.99484 0.27923,-1.79845 0.27924,3.5969 0.27923,-0.59948 0.27923,5.39535 0.27923,-1.19896 0.27923,8.99226 0.27924,-0.59949 0.27923,13.78814 0.27923,-2.39794 0.27924,8.99226 0.27923,1.19897 0.27923,-8.99226 0.27923,1.79845 0.27924,-14.9871 0.27923,1.19897 0.27923,-11.98968 0.27923,1.19896 0.27924,-4.79587 0.27923,1.19897 0.27923,-1.79845 0.27924,1.79845 0.27923,-2.39794 0.27923,-0.59948 0.27923,4.19639 0.27924,-3.59691 0.27923,4.79588 0.27923,-2.99743 0.27923,4.79588 0.27924,-3.59691 0.27923,5.39536 0.27923,-2.99742 0.27924,-9.59175 h 0.27923 l 0.27923,-31.17317 0.27923,0.599484 0.27924,-29.974205 0.27923,0.599484 0.27923,-15.586587 0.27923,2.99742 0.27924,27.576269 h 0.27923 l 0.27923,20.38246 0.27923,-1.198968 0.27924,13.188653 0.27923,-3.59691 0.27923,7.7933 0.27924,-4.19639 0.27923,7.19381 0.27923,-2.99742 0.27923,3.5969 0.27924,-1.79845 0.27923,2.99742 0.27923,-1.19897 0.27923,2.39794 0.27924,1.19897 0.27923,-3.59691 0.27923,4.19639 0.27924,-3.59691 0.27923,0.59949 0.27923,3.5969 0.27923,-4.19639 0.27924,5.99485 0.27923,-0.59949 0.27923,-5.39536 0.27923,0.59949 0.27924,3.5969 0.27923,-1.79845 0.27923,1.79845 0.27923,-1.79845 0.27924,1.79845 0.27923,5.99484 0.27923,-10.19123 0.27924,1.19897 0.27923,4.19639 0.27923,-4.19639 0.27923,4.79588 0.27924,-4.19639 0.27923,4.79587 0.27923,0.59948 0.27923,-7.19381 0.27924,1.19897 0.27923,4.79588 0.27923,-3.59691 0.27924,2.39794 0.27923,-1.79845 0.27923,1.79845 0.27923,-3.59691 0.27924,4.79588 0.27923,-0.59949 0.27923,-2.99742 0.27923,-0.59948 0.27924,4.19639 0.27923,1.19896 0.27923,-5.39535 0.27923,-0.59949 0.27924,6.59433 0.27923,-1.19897 0.27923,-4.79587 0.27924,3.5969 0.27923,-2.99742 0.27923,3.59691 0.27923,-2.99742 h 0.27924 l 0.27923,2.99742 0.27923,-4.19639 0.27923,4.19639 0.27924,-4.19639 0.27923,4.79587 0.27923,-5.39536 0.27924,5.39536 0.27923,-5.39536 0.27923,5.99484 0.27923,-1.79845 0.27924,-3.5969 0.27923,0.59948 0.27923,2.99742 0.27924,-2.39793 0.27923,2.39793 0.27923,-2.39793 0.27923,1.79845 0.27923,-2.99742 0.27924,4.19639 0.27923,-3.59691 0.27923,4.19639 0.27924,-4.19639 0.27923,4.79587 0.27923,-5.39535 0.27923,5.39535 0.27924,-5.99484 0.27923,6.59433 0.27923,-1.79845 0.27923,-3.59691 0.27924,-0.59948 0.27923,3.5969 0.27923,-2.39793 0.27924,1.79845 0.27923,-2.99742 0.27923,3.5969 0.27923,-2.99742 0.27924,2.99742 h 0.27923 l 0.27923,-2.99742 0.27923,-1.19897 0.27924,4.19639 0.27923,1.79845 0.27923,-4.79587 h 0.27923 l 0.27924,2.99742 0.27923,-2.39793 0.27923,2.99742 0.27924,-1.19897 0.27923,-1.79845 0.27923,1.79845 0.27923,-1.79845 0.27924,-0.59949 0.27923,3.59691 0.27923,-3.59691 0.27924,4.19639 0.27923,-4.79587 0.27923,5.39535 0.27923,-5.99484 0.27924,6.59433 0.27923,-5.99484 0.27923,5.39535 0.27923,-4.19638 0.27924,2.99742 0.27923,-2.39794 0.27923,1.79845 0.27923,-0.59948 0.27924,-1.19897 0.27923,3.5969 0.27923,-4.79587 0.27923,1.19897 0.27924,2.99742 0.27923,-3.5969 0.27923,4.19638 0.27924,-4.79587 0.27923,7.19381 0.27923,-2.39794 0.27923,-4.19638 0.27924,1.19896 0.27923,3.59691 0.27923,-1.79845 0.27923,2.39793 0.27924,-1.19897 0.27923,1.79846 0.27923,-1.19897 0.27924,2.99742 0.27923,-1.19897 0.27923,5.39536 0.27923,-2.99742 0.27924,7.19381 0.27923,-1.79846 0.27923,11.3902 0.27923,-4.79587 0.27924,15.58659 0.27923,-1.79846 0.27923,6.59433 0.27923,0.59948 0.27924,-9.59174 0.27923,0.59948 0.27923,-14.9871 0.27924,0.59948 0.27923,-9.59174 0.27923,1.19897 0.27923,-4.19639 0.27924,2.99742 0.27923,-4.19639 0.27923,-0.59949 0.27923,5.39536 0.27924,-5.39536 0.27923,6.59433 0.27923,-6.59433 0.27924,5.99485 0.27923,-2.99743 0.27923,4.79588 0.27923,-0.59949 0.27924,-2.99742 0.27923,1.79846 0.27923,-10.19123 h 0.27924 l 0.27923,-31.772662 0.27923,0.599484 0.27923,-29.974206 0.27923,3.596905 0.27924,-15.586587 0.27923,2.397936 0.27923,28.175754 0.27924,-0.599484 0.27923,19.782975 0.27923,-1.198968 0.27923,10.790713 0.27924,-0.59948 0.27923,5.99484 0.27923,-1.19897 0.27923,4.19639 0.27924,-1.19897 0.55846,5.39536 0.27924,-5.99484 0.27923,2.39793 0.27923,5.39536 0.27923,-5.39536 0.27924,5.39536 0.27923,-4.19639 0.27923,4.79587 0.27924,-4.19639 0.27923,5.39536 h 0.27923 l 0.27923,-3.5969 0.27924,2.99742 0.27923,-2.99742 0.27923,0.59948 0.27923,1.79845 0.27924,-1.79845 0.27923,2.99742 h 0.27923 l 0.27923,-4.19639 0.27924,4.79588 0.27923,-5.39536 0.27923,0.59948 0.27923,4.19639 0.27924,0.59949 0.27923,-4.19639 h 0.27923 l 0.27924,4.19639 0.27923,-5.39536 0.27923,4.79587 0.27923,-3.5969 0.55847,4.79587 0.27923,-5.39536 0.27924,3.59691 0.27923,-2.99742 0.27923,-1.19897 0.27923,7.79329 0.27924,-7.19381 0.27923,7.19381 0.27923,-7.19381 0.27923,5.39536 0.27924,-4.19639 0.27923,4.19639 0.27923,-3.5969 0.27923,2.99742 0.27924,-1.19897 0.27923,-2.39794 0.27923,0.59949 0.27923,2.39793 0.27924,-2.39793 0.27923,3.5969 h 0.27923 l 0.27924,-4.79587 0.27923,4.79587 0.27923,-5.99484 0.27923,1.19897 0.27924,4.79587 0.27923,1.19897 0.27923,-5.99484 0.27923,0.59948 0.27924,3.59691 0.27923,-3.59691 0.27923,2.99742 0.27924,-2.99742 0.27923,2.39794 0.27923,-2.99742 0.27923,3.5969 h 0.27924 l 0.27923,-2.99742 0.27923,-1.19897 0.27923,4.79588 0.27924,-4.79588 0.27923,5.39536 0.27923,-4.79587 0.27923,5.39535 0.27924,-1.19896 0.27923,-5.39536 0.27923,0.59948 0.27924,5.39536 0.55846,-3.5969 h 0.27923 l 0.27924,2.39793 0.27923,-3.5969 0.27923,4.19639 0.27924,-4.79588 0.27923,4.79588 0.27923,-4.79588 0.27923,5.39536 0.27924,-5.39536 0.27923,6.59433 0.27923,-1.19897 0.27923,-4.79587 h 0.27924 l 0.27923,4.19639 0.27923,-2.99742 0.27923,1.79845 0.27924,-1.79845 0.55846,2.99742 0.27923,-3.59691 0.27924,4.19639 0.27923,-4.79587 h 0.27923 l 0.27924,4.79587 0.27923,-3.5969 0.27923,3.5969 0.27923,-0.59948 0.27924,-4.19639 0.27923,4.19639 0.27923,-4.79588 0.27924,3.59691 0.27923,-2.39794 0.27923,1.19897 0.27923,1.79845 0.27924,-2.39793 0.27923,2.99742 0.27923,0.59948 0.27923,-4.19639 0.27924,0.59949 0.27923,3.5969 0.27923,-4.79587 0.27923,5.99484 0.27924,-5.39536 0.27923,5.99484 0.27923,-5.99484 0.27923,7.19381 0.27924,-5.39536 0.27923,2.39794 0.27923,-1.19897 0.27924,1.79845 0.27923,-1.19896 0.27923,2.99742 0.27923,-3.59691 0.27924,5.99484 0.27923,-4.79587 0.27923,5.99484 0.27923,-2.39794 0.27924,5.99485 0.27923,-2.39794 0.27923,9.59174 0.27924,-2.39793 0.27923,13.18865 0.27923,-1.19897 0.27923,10.79071 0.27924,1.19897 0.27923,-4.19639 h 0.27923 l 0.27923,-11.39019 0.27924,0.59948 0.27923,-14.38762 0.27923,1.19897 0.27923,-7.19381 0.27924,2.39794 0.27923,-4.79588 h 0.27923 l 0.27924,5.39536 0.27923,-5.39536 0.27923,5.39536 0.27923,-4.79587 0.27924,3.5969 0.27923,-2.39793 0.27923,3.5969 0.27924,-1.19897 0.27923,2.39794 0.27923,1.19897 0.27923,-7.19381 0.27924,1.79845 0.27923,-26.976784 0.27923,1.198964 0.27923,-31.772654 0.27924,0.599484 0.27923,-22.780396 0.27923,-0.599484 0.27923,21.581428 0.27924,-1.198968 0.27923,25.178332 v 0"
           style="fill:none;stroke:#619fcc;stroke-width:3.5;stroke-linecap:square;stroke-linejoin:round;stroke-miterlimit:10;stroke-dasharray:none;stroke-opacity:1"
           id="path192" /></g></g><g
       id="g194"><g
         id="g196"
         clip-path="url(#clipPath200)"><path
           d="m 54,121.18388 4.467723,1.12282 0.837698,0.48346 1.116931,1.16029 0.837698,1.95316 0.558465,2.2819 1.116931,4.46713 0.279233,0.79286 0.558465,0.77353 0.279233,0.0773 0.279233,0.32875 0.279232,-0.058 0.558466,0.42544 0.558465,0.36742 0.558466,0.13537 1.675396,1.0636 0.279232,-0.058 0.558466,-1.79845 0.558465,-4.17705 1.675396,-16.61152 0.558466,-3.1908 0.558465,-2.10786 0.558465,-1.10228 1.116931,-1.45036 0.279233,-0.36743 0.558465,-0.46412 0.279233,-0.44477 0.279233,-0.21273 0.837698,-1.19896 0.558465,-0.61883 0.279233,-0.13536 0.558465,1.14095 0.558466,3.1908 0.837698,6.59433 0.279232,1.74044 0.837699,2.41727 0.558465,1.14095 0.279233,0.42545 0.279232,0.0967 0.279233,0.38676 0.279233,0.0967 0.558465,0.4061 0.558465,0.15471 0.558466,0.1547 0.279233,0.21272 0.279232,-0.0193 0.279233,0.17404 0.279233,-0.0387 0.279232,0.15471 0.279233,-0.11603 0.279233,0.21272 0.279232,-0.11603 0.279233,0.19338 0.837698,0.0387 0.279233,-0.058 0.279233,0.0774 0.279232,-0.0967 0.558466,0.13536 0.837698,-0.0967 h 0.558465 l 0.279233,0.19339 1.396163,-0.0774 0.558466,0.0967 0.837698,-0.0193 0.279232,-0.11603 0.279233,0.0967 0.279233,-0.11603 0.279233,0.13537 0.279232,-0.15471 0.279233,0.13537 0.279233,-0.17405 0.279232,0.0193 0.279233,0.21272 0.279233,-0.17404 h 0.558465 l 0.279233,0.058 0.558465,-0.058 0.558466,-0.0193 0.279232,0.13537 0.279233,-0.11603 0.279233,0.13537 0.279232,-0.15471 0.558466,0.0193 0.279232,0.1547 0.279233,-0.17404 0.279233,0.2514 1.116928,0.0387 0.27924,-0.058 0.55846,0.13536 h 0.27923 l 0.27924,-0.13536 0.27923,0.11603 0.27923,-0.13537 0.27923,0.1547 0.27924,-0.1547 0.55846,0.058 0.27924,0.19339 0.27923,-0.0774 0.8377,0.17405 0.27923,-0.058 0.27923,0.11603 0.8377,-0.0193 0.27923,0.058 0.27923,-0.13537 0.27924,0.17404 0.83769,-0.058 0.27924,-0.13537 0.55846,0.11603 0.55847,0.17404 0.55846,0.058 0.8377,0.32875 0.27924,0.30941 0.27923,0.058 0.27923,0.34809 0.27923,0.11603 0.27924,0.52213 0.27923,0.21272 0.8377,1.9725 0.55846,2.30124 0.8377,3.57757 0.8377,1.93382 0.27923,0.29007 0.27923,0.0967 0.27924,0.32875 0.27923,0.0193 0.55846,0.48346 0.27924,-0.0387 2.23386,1.37301 0.55846,-0.058 0.55847,-2.08853 0.55846,-4.33175 1.6754,-16.37946 0.55847,-3.05543 0.55846,-1.87581 0.55847,-1.10227 0.55846,-0.77353 0.27924,-0.21272 0.27923,-0.44478 0.27923,-0.13537 0.27923,-0.44478 0.27924,-0.13536 0.27923,-0.44478 0.27923,-0.19338 0.55847,-0.75419 0.27923,-0.2514 0.27923,-0.42544 0.27923,-0.17404 0.27924,-0.30942 0.55846,1.33434 0.55847,3.32617 0.8377,6.57499 0.27923,1.60507 0.8377,2.45595 0.27923,0.52213 0.27923,0.2514 0.27923,0.42544 0.27924,0.1547 0.27923,0.32875 0.8377,0.34809 0.27923,0.21272 0.27923,-0.0387 0.27924,0.23206 0.27923,-0.058 0.27923,0.25139 0.27923,-0.0967 0.27924,0.19338 0.27923,-0.0967 2.23386,0.52213 0.27923,0.0193 0.55847,-0.0967 0.27923,0.0193 0.27923,0.13537 0.27924,-0.0967 1.67539,0.27073 1.11693,-0.0387 0.27924,0.0967 0.27923,-0.11603 0.27923,0.0967 0.27924,-0.17405 0.27923,0.19339 0.27923,-0.17405 0.27923,0.15471 0.27924,-0.15471 0.27923,0.15471 0.27923,-0.13537 0.27923,0.13537 0.27924,-0.0967 0.55846,-0.0193 0.8377,0.11603 0.27923,-0.17405 0.27924,0.19339 0.83769,-0.0387 0.27924,-0.15471 0.27923,0.11603 0.55846,-0.11603 0.27924,0.0193 0.27923,0.13537 0.55847,-0.15471 0.27923,0.13537 0.27923,-0.0774 0.27923,0.0774 0.27924,-0.0774 0.27923,0.0967 0.27923,-0.15471 0.27923,0.13537 0.27924,-0.19338 0.27923,0.15471 0.27923,-0.15471 0.55847,0.11603 0.27923,-0.0193 0.27923,-0.17404 0.27924,0.19338 0.27923,-0.21272 0.27923,0.17404 0.27923,-0.058 0.27924,0.1547 0.55846,-0.13536 0.55847,0.0773 0.27923,0.1547 0.27923,-0.13536 0.27924,0.0193 0.27923,0.1547 0.27923,-0.13537 0.27923,0.058 0.27924,0.19338 0.27923,0.0387 0.27923,-0.13537 0.27923,0.17404 0.27924,-0.0193 0.27923,0.13537 0.27923,-0.0193 0.27923,0.15471 h 0.27924 l 0.27923,0.29007 0.27923,-0.058 0.27924,0.27073 0.27923,0.0387 0.55846,0.36742 0.27924,0.38677 0.27923,0.17404 0.27923,0.61882 0.27923,0.23206 0.8377,2.51397 0.55847,2.3786 0.8377,3.32617 0.55846,1.16029 0.55847,0.54147 0.27923,0.0193 0.27923,0.19338 0.27923,0.32875 0.27924,-0.0387 0.55846,0.4061 1.11693,0.46412 0.27924,0.29007 0.83769,0.34809 0.55847,-0.69618 0.55847,-3.09411 0.55846,-5.24065 1.11693,-11.40953 0.8377,-5.35668 0.55847,-1.95316 0.55846,-1.17963 0.8377,-1.1603 0.27923,-0.13536 0.27923,-0.46412 1.11693,-1.00559 1.39617,-1.68242 0.27923,0.19338 0.27923,-0.058 0.55847,2.30125 0.8377,6.59432 0.55846,3.48088 0.55847,1.95315 0.27923,0.67684 1.11693,1.45037 0.27923,0.0967 0.27924,0.38676 0.27923,0.0193 0.27923,0.2514 0.27923,-0.0193 0.27924,0.25139 0.8377,0.2514 0.27923,-0.0773 0.55846,0.1547 0.27924,-0.0193 0.27923,0.0967 0.55846,-0.0773 0.27924,0.17405 0.8377,0.13536 0.27923,-0.1547 0.55846,0.0387 0.27924,0.0193 0.27923,0.19338 0.55846,-0.11603 0.27924,0.13537 0.55846,-0.0387 0.55847,0.13536 0.27923,-0.23206 0.27923,0.13537 0.27924,-0.0967 0.27923,0.11603 0.55846,-0.19338 0.55847,0.0193 0.27923,0.19338 0.27923,-0.13537 1.6754,0.0193 0.27923,0.0967 0.55847,-0.0773 0.27923,0.0967 0.27923,-0.13537 0.27924,0.13537 0.27923,-0.17405 h 0.27923 l 0.27923,0.23206 0.27924,-0.0193 0.27923,-0.13537 0.27923,0.13537 0.27924,-0.0774 1.39616,0.19339 0.27923,-0.15471 0.27923,0.15471 0.27924,-0.11603 0.27923,0.13536 0.27923,-0.0193 0.27923,-0.19339 0.27924,0.19339 h 0.27923 l 0.27923,-0.17405 1.11693,0.058 1.95463,0.13536 0.27924,-0.1547 0.55846,0.0387 0.27923,0.15471 h 0.55847 l 0.27923,-0.11603 3.35079,0.48346 0.27924,0.30941 0.27923,-0.0193 0.27923,0.29007 0.27923,0.0193 1.39617,1.54706 0.27923,0.52213 0.55847,1.58573 1.11693,4.87322 0.8377,2.3786 0.55846,0.69618 0.55847,0.32875 1.39616,0.67683 0.27923,0.27074 0.27923,0.058 0.27924,0.32875 h 0.27923 l 0.55847,0.56081 0.55846,0.17404 0.55847,-1.19896 0.55846,-3.57757 0.8377,-8.66351 0.55847,-5.58874 0.55846,-4.3511 0.55847,-2.9394 0.55846,-1.64375 0.55847,-1.00559 0.27923,-0.42544 0.27923,-0.21272 0.55847,-0.69617 1.67539,-1.74044 0.55847,-0.90889 0.27923,-0.15471 0.27923,-0.42544 0.27924,0.19338 0.27923,0.5028 0.55847,2.70734 1.39616,9.78513 0.27923,1.08294 1.11693,2.08853 0.8377,0.83154 0.8377,0.44478 0.8377,0.34808 0.83769,0.17405 0.27924,-0.058 0.27923,0.13537 h 0.27923 l 0.27924,-0.11603 0.27923,0.0193 0.27923,0.23206 0.27923,-0.27074 0.27924,0.17405 h 0.55846 l 0.27923,0.0387 0.27924,-0.11603 0.27923,0.13537 0.27923,-0.13537 0.27923,0.17405 2.23387,-0.0774 0.27923,0.19339 0.27923,-0.21272 0.27923,0.0387 0.27924,0.15471 0.55846,-0.17405 3.35079,0.2514 0.27924,-0.13537 0.27923,0.0967 0.55847,-0.15471 0.55846,-0.0193 0.27923,0.11603 0.55847,-0.0967 1.6754,0.0773 0.27923,-0.19338 h 0.55846 l 0.27924,0.19338 0.27923,-0.1547 0.27923,0.17404 0.27924,-0.0967 0.27923,0.0773 0.27923,-0.0967 1.11693,0.17405 0.27923,-0.0967 0.27924,0.15471 0.27923,-0.13537 0.27923,0.13537 0.27923,-0.11603 0.55847,0.15471 0.27923,-0.11603 0.27923,0.19338 0.27924,-0.13537 0.55846,0.15471 1.39617,-0.0387 1.11693,0.29007 0.27923,-0.11603 0.27923,0.17405 0.8377,0.0193 0.27923,0.27073 0.27924,-0.0387 1.39616,1.19897 0.55846,1.08294 0.55847,1.77912 1.6754,6.47829 0.27923,0.73485 0.8377,0.79287 2.51309,1.33433 0.27923,0.34809 0.27924,0.0387 0.27923,0.38676 0.27923,0.0967 0.55847,-0.42544 0.55846,-2.66867 0.55847,-4.95058 1.11693,-11.77696 0.55846,-4.04168 0.55847,-2.68801 0.55847,-1.64375 0.83769,-1.315 0.8377,-0.98624 0.55847,-0.48346 0.83769,-0.92823 0.27924,-0.46412 0.27923,-0.23206 0.27923,-0.54147 0.27924,-0.25139 0.27923,0.0387 0.27923,-0.13536 0.55847,1.8758 0.83769,6.20756 0.55847,3.98367 0.27923,1.315 0.8377,1.8758 0.27923,0.58015 0.27924,0.19338 0.55846,0.75419 1.6754,0.73485 0.8377,0.19338 0.55846,0.23206 0.27923,-0.0773 0.27924,0.19338 0.27923,0.0387 0.27923,-0.11603 0.27923,0.0387 0.27924,0.23205 0.55846,0.058 0.8377,0.0967 0.27923,-0.23206 0.55847,0.2514 0.27923,-0.11603 0.27923,0.15471 0.27924,-0.13537 0.27923,0.1547 0.27923,-0.17404 0.55847,0.0193 0.27923,0.19338 1.39616,-0.0967 0.27924,0.13537 0.55846,-0.11603 0.27923,-0.0193 0.27924,0.13537 0.55846,-0.13537 0.27924,0.0193 0.27923,0.19338 0.27923,-0.19338 0.8377,0.0773 0.27923,0.11603 0.55847,-0.15471 0.27923,0.0774 0.27923,-0.0967 0.27923,0.0967 0.27924,-0.13537 0.27923,0.11603 0.27923,-0.13537 0.27924,0.13537 1.11693,-0.19338 0.27923,0.17404 2.51309,0.0193 0.27924,-0.13537 0.27923,0.11603 0.27923,-0.15471 0.27923,0.15471 0.27924,-0.17404 0.27923,0.19338 0.27923,-0.21272 1.39617,0.23206 0.27923,-0.0387 0.27923,0.11603 0.55847,0.0193 0.27923,0.058 0.27923,-0.0967 0.27924,0.0387 0.27923,0.17404 0.55846,-0.0773 h 0.27924 l 0.27923,0.23206 0.55846,0.058 0.27924,-0.058 1.11693,0.44478 0.27923,0.21271 0.27923,0.058 0.27923,0.27073 0.27924,0.0967 0.27923,0.42544 0.27923,0.1547 0.27924,0.58015 0.27923,0.30941 1.11693,3.61624 0.8377,3.57757 0.27923,1.04426 0.8377,1.33434 1.11693,0.73485 0.27923,-0.0774 1.39616,0.83155 0.27924,0.058 0.55846,0.42544 0.55847,0.19338 0.27923,-0.21272 0.27923,-0.38676 0.55847,-2.84272 0.8377,-8.16071 0.55846,-5.95617 0.55847,-4.83455 0.55846,-3.34551 0.55847,-1.91448 0.55847,-1.10228 0.55846,-0.8122 0.27923,-0.19338 1.11693,-1.45037 0.27924,-0.11603 0.27923,-0.44477 0.27923,-0.19339 0.55847,-0.77352 0.27923,-0.19339 0.27923,-0.36742 0.55847,0.0193 0.55846,2.04985 1.6754,11.33218 1.11693,2.5333 0.27923,0.23206 0.27924,0.4061 0.27923,0.0967 0.27923,0.29008 0.55847,0.1547 0.27923,0.34809 0.8377,0.2514 0.27923,-0.0967 0.27923,0.29007 0.27923,-0.0967 0.27924,0.27073 0.27923,-0.13537 2.23386,0.21272 0.8377,0.0774 0.27923,0.19338 0.55847,0.058 0.27923,-0.17405 h 0.27923 l 0.55847,0.21272 0.27923,0.0387 0.27923,-0.0967 0.27924,0.13536 0.55846,-0.0967 1.6754,0.13537 0.27923,-0.23206 0.27923,0.15471 0.27924,-0.17405 0.27923,0.13537 0.27923,-0.1547 0.27923,0.13536 h 0.27924 l 0.55846,-0.17404 0.27924,0.11603 1.95462,-0.17405 0.27924,0.13537 0.27923,-0.17404 0.55846,-0.058 0.27924,0.17405 h 0.55846 l 0.27924,-0.11603 0.27923,0.11603 0.27923,-0.058 0.27923,0.0967 0.55847,-0.0967 0.55847,0.15471 0.55846,0.0387 0.27923,-0.15471 0.27924,0.15471 0.27923,-0.13537 0.27923,0.0193 0.27923,0.17404 h 0.55847 l 0.27923,-0.11603 0.55847,0.0387 0.27923,-0.058 0.27923,0.11603 0.27923,-0.0967 0.27924,0.15471 0.55846,0.058 0.27924,-0.11603 0.27923,0.17404 0.27923,-0.19338 0.55847,0.058 0.27923,0.21272 0.27923,-0.11603 0.27924,0.21272 0.27923,-0.0193 0.55846,0.13537 0.55847,0.1547 0.55846,0.19339 0.27924,0.30941 h 0.27923 l 0.27923,0.30941 0.27923,0.11603 0.55847,0.71551 0.55846,1.19897 0.8377,3.22948 0.8377,3.61624 0.8377,2.03051 0.55846,0.58015 0.55847,0.29007 0.27923,-0.0387 0.27924,0.32875 0.27923,-0.0773 0.27923,0.27073 0.27923,0.0387 0.27924,0.19338 0.27923,0.058 0.8377,0.56081 0.55846,0.1547 0.27923,-0.0967 0.55847,-1.93382 0.55847,-4.27374 2.79232,-28.30508 L 388.8,73.476315 v 0"
           style="fill:none;stroke:#af4d57;stroke-width:2.5;stroke-linecap:square;stroke-linejoin:round;stroke-miterlimit:10;stroke-dasharray:none;stroke-opacity:1"
           id="path202" /></g></g><g
       id="g204"><g
         id="g206"
         transform="translate(262.3625,29.53125)"><text
           transform="scale(1,-1)"
           style="font-variant:normal;font-weight:bold;font-size:10px;font-family:Garamond;-inkscape-font-specification:Garamond-Bold;writing-mode:lr-tb;fill:#000000;fill-opacity:1;fill-rule:nonzero;stroke:none"
           id="text210"><tspan
             x="0 8.6499996 13.86 17.299999 20.110001 24.628124 29.838125 35.358124 38.478127 43.268124 45.868126 48.468124 50.968124 55.658127 60.348125 62.948124 67.638123 72.328125 74.828125 83.268127 87.438126 92.958122 98.478127 101.11625 105.69625 108.50625 112.67625 115.48625 120.69625"
             y="0"
             sodipodi:role="line"
             id="tspan208">Horizontal: 22.00 ms/division</tspan></text></g><g
         id="g212"
         transform="translate(34.835771,29.53125)"><text
           transform="scale(1,-1)"
           style="font-variant:normal;font-weight:bold;font-size:10px;font-family:Garamond;-inkscape-font-specification:Garamond-Bold;writing-mode:lr-tb;fill:#000000;fill-opacity:1;fill-rule:nonzero;stroke:none"
           id="text216"><tspan
             x="0 5.8418751 10.531875 14.3 17.42 20.23 24.92 29.709999 32.310001 34.91 37.41 42.099998 44.700001 48.66 51.16 55.490002 60.700001 63.299999 66.419998 70.589996 76.110001 81.629997 84.268127 88.848122 91.658127 95.828125 98.638123 103.84812"
             y="0"
             sodipodi:role="line"
             id="tspan214">Vertical: 0.1 volts/division</tspan></text></g><g
         id="g218"
         transform="translate(1.5625,246.97125)"><text
           transform="scale(1,-1)"
           style="font-variant:normal;font-weight:bold;font-size:10px;font-family:Garamond;-inkscape-font-specification:Garamond-Bold;writing-mode:lr-tb;fill:#000000;fill-opacity:1;fill-rule:nonzero;stroke:none"
           id="text222"><tspan
             x="0 7.8099999 12.5 16.67 21.360001 24.799999 27.610001 33.130001 36.25 39.060001 44.27 49.790001"
             y="0"
             sodipodi:role="line"
             id="tspan220">Description:</tspan></text></g><g
         id="g224"
         transform="translate(54,246.97125)"><text
           transform="matrix(1,0,0,-1,2.5,0)"
           style="font-variant:normal;font-weight:bold;font-size:10px;font-family:Garamond;-inkscape-font-specification:Garamond-Bold;writing-mode:lr-tb;fill:#000000;fill-opacity:1;fill-rule:nonzero;stroke:none"
           id="text228"><tspan
             x="0 6.0518751 10.741875 14.911875 18.031876 20.531876 28.341875 33.131874 36.251877"
             y="0"
             sodipodi:role="line"
             id="tspan226">Test Data</tspan></text></g><g
         id="g230"
         transform="translate(14.171875,234.77835)"><text
           transform="scale(1,-1)"
           style="font-variant:normal;font-weight:bold;font-size:10px;font-family:Garamond;-inkscape-font-specification:Garamond-Bold;writing-mode:lr-tb;fill:#000000;fill-opacity:1;fill-rule:nonzero;stroke:none"
           id="text234"><tspan
             x="0 9.1700001 13.96 18.65 24.17 26.98 32.5 37.189999"
             y="0"
             sodipodi:role="line"
             id="tspan232">Machine:</tspan></text></g><g
         id="g236"
         transform="translate(54,234.48148)"><text
           transform="matrix(1,0,0,-1,5,0)"
           style="font-variant:normal;font-weight:bold;font-size:10px;font-family:Garamond;-inkscape-font-specification:Garamond-Bold;writing-mode:lr-tb;fill:#000000;fill-opacity:1;fill-rule:nonzero;stroke:none"
           id="text240"><tspan
             x="0 4.6900001 10.21 15.21 20.209999 22.709999 26.67 31.360001 36.880001 39.380001 48.549999 51.360001 56.880001 59.689999 62.189999 68.540001 73.330002 76.449997 81.970001 86.660004 89.160004 94.580002 97.080002 99.889999 103.01 107.7 116.14 118.64 124.06625 129.58624 138.02625 143.54625 148.23625 151.25438 153.85437 156.45438"
             y="0"
             sodipodi:role="line"
             id="tspan238">7&quot; x 10&quot; Mini Lathe | item number...</tspan></text></g><g
         id="g242"
         transform="translate(17.53125,222.58546)"><text
           transform="scale(1,-1)"
           style="font-variant:normal;font-weight:bold;font-size:10px;font-family:Garamond;-inkscape-font-specification:Garamond-Bold;writing-mode:lr-tb;fill:#000000;fill-opacity:1;fill-rule:nonzero;stroke:none"
           id="text246"><tspan
             x="0 5.9625001 11.1725 13.9825 19.502501 22.622499 26.1625 30.3325 33.872501"
             y="0"
             sodipodi:role="line"
             id="tspan244">Point(s):</tspan></text></g><g
         id="g248"
         transform="translate(54,222.58546)"><text
           transform="matrix(1,0,0,-1,2.5,0)"
           style="font-variant:normal;font-weight:bold;font-size:10px;font-family:Garamond;-inkscape-font-specification:Garamond-Bold;writing-mode:lr-tb;fill:#619fcc;fill-opacity:1;fill-rule:nonzero;stroke:none"
           id="text252"><tspan
             x="0 6.77 15.42"
             y="0"
             sodipodi:role="line"
             id="tspan250">CH1</tspan></text></g><g
         id="g254"
         transform="translate(99.875,222.58546)"><text
           transform="scale(1,-1)"
           style="font-variant:normal;font-weight:bold;font-size:10px;font-family:Garamond;-inkscape-font-specification:Garamond-Bold;writing-mode:lr-tb;fill:#000000;fill-opacity:1;fill-rule:nonzero;stroke:none"
           id="text258"><tspan
             x="0 2.5999999"
             y="0"
             sodipodi:role="line"
             id="tspan256">, </tspan></text></g><g
         id="g260"
         transform="translate(110.5,222.58546)"><text
           transform="scale(1,-1)"
           style="font-variant:normal;font-weight:bold;font-size:10px;font-family:Garamond;-inkscape-font-specification:Garamond-Bold;writing-mode:lr-tb;fill:#af4d57;fill-opacity:1;fill-rule:nonzero;stroke:none"
           id="text264"><tspan
             x="0 5.0999999 12.39 17.6 20.200001 24.99"
             y="0"
             sodipodi:role="line"
             id="tspan262">SGolay</tspan></text></g><g
         id="g266"
         transform="translate(19.703125,210.39256)"><text
           transform="scale(1,-1)"
           style="font-variant:normal;font-weight:bold;font-size:10px;font-family:Garamond;-inkscape-font-specification:Garamond-Bold;writing-mode:lr-tb;fill:#000000;fill-opacity:1;fill-rule:nonzero;stroke:none"
           id="text270"><tspan
             x="0 7.8099999 12.6 15.72 20.41 23.950001 28.120001 31.66"
             y="0"
             sodipodi:role="line"
             id="tspan268">Date(s):</tspan></text></g><g
         id="g272"
         transform="translate(54,210.39256)"><text
           transform="matrix(1,0,0,-1,2.5,0)"
           style="font-variant:normal;font-weight:bold;font-size:10px;font-family:Garamond;-inkscape-font-specification:Garamond-Bold;writing-mode:lr-tb;fill:#619fcc;fill-opacity:1;fill-rule:nonzero;stroke:none"
           id="text276"><tspan
             x="0 4.6900001 9.3800001 14.07 18.030001 21.360001 25.32 30.01 33.34 38.029999 42.720001 45.220001 49.91 54.599998 57.200001 61.889999 66.580002 69.18 73.139999 77.830002 80.43 85.120003 89.809998 94.5 97.830002 102.52 107.21 109.81 114.5"
             y="0"
             sodipodi:role="line"
             id="tspan274">2021-12-09 05:38:16.775-08:00</tspan></text></g><g
         id="g278"
         transform="translate(307.625,210.39256)"><text
           transform="scale(1,-1)"
           style="font-variant:normal;font-weight:bold;font-size:10px;font-family:Garamond;-inkscape-font-specification:Garamond-Bold;writing-mode:lr-tb;fill:#000000;fill-opacity:1;fill-rule:nonzero;stroke:none"
           id="text282"><tspan
             x="0 2.5999999"
             y="0"
             sodipodi:role="line"
             id="tspan280">, </tspan></text></g><g
         id="g284"
         transform="translate(54,191.39256)"><text
           transform="matrix(1,0,0,-1,2.5,0)"
           style="font-variant:normal;font-weight:bold;font-size:10px;font-family:Garamond;-inkscape-font-specification:Garamond-Bold;writing-mode:lr-tb;fill:#af4d57;fill-opacity:1;fill-rule:nonzero;stroke:none"
           id="text288"><tspan
             x="0 4.6900001 9.3800001 14.07 18.030001 21.360001 25.32 30.01 33.34 38.029999 42.720001 45.220001 49.91 54.599998 57.200001 61.889999 66.580002 69.18 73.139999 77.830002 80.43 85.120003 89.809998 94.5 97.830002 102.52 107.21 109.81 114.5"
             y="0"
             sodipodi:role="line"
             id="tspan286">2021-12-09 05:38:16.775-08:00</tspan></text></g></g><g
       id="g290"><g
         id="g292"
         clip-path="url(#clipPath296)"><path
           d="M 230.46615,243.27925 V 253.44"
           style="fill:none;stroke:#000000;stroke-width:0.25;stroke-linecap:square;stroke-linejoin:round;stroke-miterlimit:10;stroke-dasharray:none;stroke-opacity:1"
           id="path298" /></g></g><g
       id="g300"><g
         id="g302"
         clip-path="url(#clipPath306)"><path
           d="M 340.55513,243.27925 V 253.44"
           style="fill:none;stroke:#000000;stroke-width:0.25;stroke-linecap:square;stroke-linejoin:round;stroke-miterlimit:10;stroke-dasharray:none;stroke-opacity:1"
           id="path308" /></g></g><g
       id="g310"><g
         id="g312"
         clip-path="url(#clipPath316)"><path
           d="m 230.46615,247.8166 0.18364,-1.81572 0.0918,-0.8774 0.0918,0.32314 0.0918,-0.66726 0.0918,0.25973 0.0918,-0.32126 0.18364,0.13355 0.18363,-0.58312 0.0918,0.4642 0.18363,-0.35865 0.0918,0.1379 0.0918,-0.29112 0.0918,0.38816 0.0918,-0.39272 0.0918,0.57123 0.0918,-0.48868 0.18363,0.52533 0.0918,-0.9796 0.0918,0.8801 0.0918,-0.35099 0.18364,0.49046 0.18363,-0.67614 0.0918,0.824 0.18363,-0.14133 0.55091,0.85804 0.27545,1.51638 0.0918,-0.43234 0.18363,1.2781 0.0918,-0.53672 0.0918,0.69298 0.0918,-0.97285 0.0918,0.41351 0.27545,-1.34283 0.18364,-0.48028 0.18363,-0.14063 0.0918,0.0558 0.0918,0.33407 0.0918,-0.78963 0.0918,0.72907 0.0918,-0.21025 0.27545,0.72242 0.27545,2.71431 0.18364,0.53794 0.0918,1.64911 0.0918,-1.60778 0.0918,2.19533 0.5509,-5.53727 0.0918,-0.0214 0.0918,-0.67479 0.0918,0.25611 0.27545,-0.82097 0.27545,-0.34634 0.0918,-0.0282 0.18363,-0.42995 0.0918,0.42174 0.0918,-0.42096 0.0918,0.21594 0.0918,-0.20913 0.0918,0.13593 0.0918,-0.22237 0.0918,0.0484 0.0918,0.0225 0.0918,-0.26238 0.0918,0.25331 0.0918,-0.35001 0.0918,0.32854 0.0918,-0.39384 0.0918,0.25419 0.0918,-0.054 0.0918,-0.33062 0.0918,0.50702 0.0918,-0.28205 0.18364,0.29478 0.18363,-0.48033 0.0918,0.52231 0.18364,-0.49699 0.0918,0.31005 0.18364,-0.4026 0.0918,0.2984 0.0918,-0.22619 0.0918,0.2546 0.27545,-0.11846 0.27545,-0.0445 0.0918,0.26778 0.0918,-0.46787 0.0918,0.58921 0.27545,-0.47951 0.45908,-0.093 0.0918,0.2358 0.0918,-0.17413 0.0918,0.34674 0.18363,-0.21959 0.0918,0.23126 0.18363,-0.27231 0.0918,0.30594 0.0918,-0.12177 0.0918,-0.3175 0.0918,0.2229 0.18364,-0.27723 0.0918,0.28537 0.0918,-0.16859 0.18364,0.10133 0.27545,-0.0746 0.0918,0.20712 0.0918,-0.28252 0.0918,0.52666 0.0918,-0.0332 0.0918,-0.1968 0.0918,0.0752 0.27545,-0.46292 0.0918,0.37711 0.0918,-0.177 0.18363,0.0858 0.27546,-0.0319 0.0918,0.11648 0.0918,-0.16767 0.0918,0.21686 0.0918,-0.15679 0.0918,0.59391 0.18364,-0.68367 0.0918,0.0365 0.0918,-0.2116 0.18364,0.33193 0.18363,-0.23579 0.0918,0.35578 0.18363,-0.1388 0.27545,0.20929 0.0918,-0.35875 0.0918,0.45619 0.0918,-0.64046 0.0918,0.7012 0.18364,-0.51913 0.18363,0.2624 0.0918,-0.2603 0.18364,0.14989 0.0918,-0.1259 0.18364,0.55857 0.0918,-0.42094 0.18364,0.26641 0.0918,-0.44585 0.0918,0.75059 0.0918,-0.0799 0.18364,-0.42449 0.0918,0.51997 0.0918,-0.18786 0.36727,0.56189 0.0918,-0.15571 0.27545,0.78431 0.0918,-0.19542 0.0918,0.72086 0.0918,-0.18863 0.0918,1.32391 0.0918,-0.48699 0.18363,1.15515 0.0918,-0.43049 0.0918,0.64186 0.0918,-1.07307 0.0918,0.49336 0.18363,-1.09147 0.18364,-0.59832 0.0918,0.24934 0.0918,-0.81188 0.0918,0.56333 0.0918,-0.38488 0.18363,0.23572 0.0918,-0.0186 0.0918,0.41737 0.0918,-0.20438 0.0918,0.9291 0.0918,-0.2954 0.36727,3.30176 0.0918,-0.13398 0.0918,1.73295 0.0918,-1.62716 0.0918,2.03948 0.0918,-0.76718 0.0918,-2.15747 0.0918,0.60302 0.0918,-2.13155 0.0918,0.13063 0.18364,-1.18253 0.27545,-1.01682 0.0918,0.0206 0.27545,-0.63459 0.0918,0.15801 0.0918,-0.28483 0.0918,0.0806 0.18364,-0.21556 0.0918,0.10871 0.0918,-0.37584 0.0918,0.42235 0.0918,-0.67633 0.0918,0.3378 0.0918,-0.20587 0.18364,0.19708 0.0918,-0.37804 0.0918,0.54169 0.18364,-0.32712 0.0918,0.24935 0.18364,-0.46233 0.0918,0.38473 0.27546,-0.50653 0.0918,0.5457 0.0918,-0.37581 0.0918,0.17329 0.27545,-0.20841 0.0918,0.1579 0.0918,-0.15642 0.0918,0.20633 0.18364,-0.0609 0.0918,0.0555 0.0918,-0.20749 0.0918,0.16919 0.0918,-0.17142 0.0918,0.26339 0.0918,-0.40984 0.0918,0.35977 0.0918,-0.38664 0.0918,0.52872 0.18364,-0.3795 0.0918,0.10258 0.0918,-0.23136 0.0918,0.35298 0.18363,-0.21501 0.0918,0.17647 0.0918,-0.24742 0.0918,0.52274 0.27545,-0.49712 0.0918,-0.009 0.0918,0.14589 0.0918,-0.20664 0.0918,0.2633 0.0918,-0.25665 0.0918,0.3122 0.0918,-0.25291 0.0918,0.20793 0.0918,-0.15782 0.18364,0.23833 0.0918,-0.24702 0.27545,0.21441 0.0918,-0.28361 0.0918,0.26082 0.0918,-0.30842 0.0918,0.30813 0.0918,-0.18448 0.0918,0.26689 0.0918,-0.39888 0.0918,0.17069 0.0918,-0.0876 0.0918,0.52464 0.27545,-0.4157 0.0918,-0.15503 0.0918,0.14264 0.0918,-0.12304 0.0918,0.31962 0.0918,-0.0264 0.18363,-0.22772 0.0918,0.32088 0.0918,-0.10853 0.0918,-0.32542 0.18363,0.0782 0.27545,0.0445 0.18364,0.29292 0.0918,-0.41808 0.0918,0.42877 0.18364,-0.44291 0.0918,0.4325 0.0918,-0.15905 0.18364,0.35049 0.0918,-0.65589 0.0918,0.43752 0.0918,-0.35096 0.0918,0.25652 0.0918,-0.12093 0.0918,0.48205 0.18364,-0.54597 0.0918,0.36974 0.0918,-0.0485 0.0918,-0.13201 0.0918,0.4686 0.18364,-0.69538 0.0918,0.56029 0.0918,-0.0471 0.0918,-0.17204 0.0918,0.16547 0.0918,-0.0782 0.0918,0.22578 0.0918,-0.0948 0.0918,0.17215 0.0918,-0.0993 0.0918,0.41465 0.0918,-0.35305 0.0918,0.53137 0.0918,-0.24166 0.0918,0.50898 0.0918,-0.12809 0.0918,0.61076 0.0918,-0.3131 0.0918,1.12868 0.0918,-0.47119 0.0918,1.36076 0.0918,-0.44988 0.18364,1.09508 0.0918,-0.87308 0.0918,0.93713 0.0918,-1.31453 0.0918,0.27205 0.18363,-0.8946 0.0918,-0.0579 0.0918,-0.78591 0.0918,0.47833 0.18364,-0.47076 0.0918,0.72706 0.0918,-0.58159 0.27545,0.65868 0.0918,-0.20673 0.0918,1.1882 0.0918,-0.4764 0.27545,3.06336 0.0918,0.89354 0.0918,-0.92343 0.0918,1.91457 0.0918,-1.50543 0.0918,1.07348 0.0918,-0.4282 0.0918,-2.74914 0.0918,0.39849 0.18363,-1.60832 0.18364,-0.87088 0.18363,-0.48711 0.27545,-0.57253 0.0918,-0.008 0.18364,-0.21549 0.0918,0.0122 0.0918,-0.38644 0.0918,0.44843 0.0918,-0.70052 0.18364,0.26997 0.0918,-0.009 0.0918,-0.18939 0.0918,0.32402 0.0918,-0.49632 0.0918,0.0822 0.0918,0.37185 0.18364,-0.27921 0.0918,0.46911 0.0918,-0.6395 0.0918,0.16255 0.0918,-0.0622 0.0918,-0.23177 0.0918,0.19574 0.0918,-0.27581 0.0918,0.39977 0.27545,-0.47806 0.0918,0.63869 0.0918,-0.13337 0.0918,-0.34462 0.0918,0.27707 0.0918,-0.3164 0.0918,0.5595 0.18364,-0.42983 0.27545,0.0359 0.0918,-0.28033 0.0918,0.33961 0.18364,-0.17959 0.0918,0.11718 0.18363,-0.13736 0.0918,0.1753 0.0918,-0.25779 0.0918,0.37682 0.18364,-0.22989 0.0918,0.29031 0.18363,-0.25844 0.0918,0.17657 0.18363,-0.33942 0.0918,0.10062 0.18363,-0.16435 0.0918,0.32034 0.0918,-0.0819 0.0918,-0.12111 0.27546,0.19843 0.0918,-0.23297 0.0918,0.51168 0.18364,-0.44803 0.18363,0.20087 0.18364,-0.23749 0.0918,0.0478 0.0918,-0.10106 0.0918,0.1822 0.0918,-0.27001 0.0918,0.31421 0.0918,-0.19562 0.18363,0.22958 0.0918,-0.1971 0.0918,0.45234 0.18363,-0.40699 0.0918,0.19111 0.0918,-0.054 0.0918,-0.28142 0.0918,0.34366 0.18364,-0.35112 0.0918,0.14621 0.0918,-0.12594 0.0918,0.30998 0.0918,-0.0359 0.0918,-0.21724 0.0918,0.4003 0.18364,-0.31332 0.0918,0.18686 0.0918,-0.21666 0.0918,0.32855 0.18363,-0.22753 0.0918,0.13982 0.0918,-0.31781 0.0918,0.38585 0.0918,-0.37 0.0918,0.13995 0.18363,-0.0419 0.0918,0.11621 0.0918,-0.3214 0.0918,0.5193 0.0918,-0.0567 0.0918,-0.26502 0.0918,0.38161 0.18363,-0.52749 0.0918,0.50024 0.18363,-0.25145 0.0918,0.30395 0.0918,-0.30472 0.0918,0.0712 0.18363,0.29626 0.0918,-0.0493 0.0918,-0.39566 0.0918,0.69273 0.0918,-0.27691 0.18364,0.3921 0.0918,-0.19704 0.0918,0.36978 0.0918,-0.26246 0.0918,0.46334 0.0918,-0.10981 0.27545,0.8945 0.0918,-0.0256 0.0918,0.85954 0.0918,-0.31108 0.0918,1.27745 0.0918,-0.27373 0.18364,0.80509 0.0918,-1.10665 0.0918,0.80188 0.18363,-1.12028 0.36727,-1.31677 0.18364,0.22101 0.0918,-0.0694 0.0918,-0.25291 0.18364,0.37816 0.18363,0.46198 0.0918,-0.15664 0.0918,1.56669 0.0918,-0.52073 0.18364,1.87473 0.0918,0.62142 0.0918,1.51772 0.0918,-1.5761 0.0918,2.39364 0.18363,-2.11232 0.0918,0.59149 0.0918,-2.57858 0.0918,0.19725 0.18363,-1.38346 0.27545,-1.26875 0.0918,-0.0178 0.27545,-0.44603 0.27545,-0.34772 0.0918,0.0486 0.27545,-0.14724 0.0918,-0.0134 0.0918,-0.19361 0.0918,0.30416 0.18364,-0.59798 0.0918,0.73317 0.0918,-0.0771 0.0918,-0.66583 0.0918,0.56401 0.0918,-0.71357 0.0918,0.86297 0.0918,-0.7151 0.0918,0.34931 0.18363,-0.3898 0.0918,0.12621 0.0918,0.37924 0.0918,-0.48165 0.0918,0.23197 0.18364,-0.21983 0.18363,0.0305 0.18364,0.40284 0.18363,-0.44761 0.0918,0.0498 0.0918,-0.18697 0.0918,0.15667 0.0918,-0.0924 0.0918,0.25721 0.18363,-0.28386 0.0918,-0.0351 0.0918,0.38088 0.18363,-0.33401 0.0918,0.33001 0.0918,-0.31654 0.18363,0.14786 0.0918,-0.25466 0.0918,0.18151 0.0918,-0.1336 0.0918,0.29239 0.0918,-0.20275 0.0918,0.25719 0.0918,-0.32007 0.0918,0.14199 0.0918,-0.16274 0.0918,0.42176 0.18364,-0.22888 0.0918,0.0471 0.0918,-0.1627 0.0918,0.35718 0.18363,-0.44675 0.18364,0.24083 0.0918,-0.33742 0.0918,0.28175 0.0918,-0.35828 0.0918,0.3985 0.0918,-0.19168 0.18363,0.0981 0.0918,-0.18401 0.0918,0.15754 0.0918,-0.19478 0.0918,0.2338 0.0918,-0.25645 0.27545,0.57664 0.18363,-0.29631 0.0918,0.0712 0.0918,-0.30823 0.0918,0.19613 0.0918,-0.16367 0.0918,0.22531 0.18363,-0.13686 0.0918,0.17713 0.0918,-0.16443 0.0918,0.34549 0.0918,-0.27989 0.18364,0.14447 0.0918,-0.17285 0.0918,0.27138 0.0918,-0.48929 0.0918,0.31074 0.0918,-0.21706 0.0918,0.42498 0.0918,-0.51022 0.0918,0.53991 0.18363,-0.23239 0.0918,0.0468 0.0918,-0.16367 0.0918,0.20136 0.0918,-0.31218 0.0918,0.36238 0.0918,-0.37515 0.0918,0.62404 0.18364,-0.40708 0.0918,0.18019 0.18363,-0.38957 0.0918,0.48773 0.0918,-0.26893 0.0918,0.21387 0.0918,-0.11858 0.18363,0.10114 0.27546,0.0521 0.0918,0.33831 0.18364,-0.53922 0.0918,0.81307 0.0918,-0.15436 0.0918,-0.0379 0.0918,0.39978 0.0918,-0.13702 0.27546,0.74544 0.0918,0.0315 0.27546,1.7909 0.0918,-0.5431 0.18364,1.26745 0.0918,-0.88532 0.0918,0.78068 0.0918,-1.06346 0.0918,0.16875 0.36727,-1.49183 0.0918,0.09 0.0918,-0.22966 0.0918,0.3056 0.0918,-0.63947 0.0918,0.55671 0.0918,-0.26592 0.45909,1.20223 0.0918,1.57778 0.0918,-0.39826 0.18364,2.37825 0.0918,-0.56733 0.0918,1.86369 0.0918,-1.55587 0.0918,1.43357 0.0918,-0.39796 0.0918,-2.71997 0.0918,0.5102 0.0918,-1.77751 0.0918,0.10142 0.18364,-1.12282 0.0918,-0.52861 0.0918,0.0266 0.36727,-0.73473 0.0918,0.075 0.0918,-0.28103 0.0918,0.22051 0.0918,-0.57048 0.0918,0.27275 0.18363,-0.35016 0.0918,0.48289 0.0918,-0.44683 0.18363,0.32856 0.0918,-0.59934 0.0918,0.0723 0.0918,0.39465 0.18364,-0.2606 0.0918,0.0311 0.0918,-0.12811 0.0918,0.40785 0.0918,-0.0943 0.0918,-0.37917 0.0918,0.44733 0.0918,-0.51643 0.0918,0.25525 0.18363,-0.17084 0.0918,0.29681 0.18363,-0.37353 0.0918,0.38935 0.18364,-0.379 0.36727,0.0516 0.0918,0.21424 0.18364,-0.46818 0.18363,0.47869 0.18364,-0.45406 0.18363,0.5351 0.18364,-0.52599 0.0918,0.20719 0.0918,-0.2786 0.0918,0.41945 0.0918,-0.29838 0.0918,0.37459 0.0918,-0.26013 0.0918,0.0909 0.0918,-0.1134 0.18364,0.0622 0.27545,-0.0964 0.0918,0.31377 0.18363,-0.45623 0.0918,0.28771 0.18363,-0.14152 0.27546,-0.087 0.18363,0.15225 0.27545,-0.0761 0.0918,0.179 0.0918,-0.24287 0.0918,0.26541 0.0918,-0.26352 0.0918,0.47952 0.18363,-0.60043 0.18364,0.24202 0.0918,-0.22241 0.27545,0.27217 0.0918,-0.26316 0.0918,0.36891 0.18364,-0.40641 0.18363,0.51758 0.18364,-0.4887 0.0918,0.30172 0.18364,-0.1374 0.0918,0.16072 0.18363,-0.27268 0.0918,0.18432 0.0918,-0.30536 0.0918,0.51035 0.0918,-0.21643 0.18363,0.064 0.27546,-0.0298 0.0918,0.24604 0.0918,-0.39389 0.0918,0.42335 0.0918,-0.54243 0.0918,0.4797 0.0918,-0.44062 0.0918,0.45508 0.0918,-0.37863 0.0918,0.33631 0.0918,-0.0434 0.0918,-0.33685 0.0918,0.53546 0.0918,-0.21227 0.27546,0.0907 0.0918,0.48572 0.0918,-0.62579 0.0918,0.0181 0.18363,0.44207 0.0918,-0.0923 0.0918,0.17662 0.0918,-0.0613 0.45909,0.76955 0.0918,-0.0749 0.27545,1.37807 0.0918,-0.58037 0.0918,1.57085 0.0918,-0.49996 0.18364,1.11625 0.0918,-0.95815 0.0918,0.75394 0.0918,-1.10079 0.0918,0.0542 0.27546,-1.05276 0.0918,-0.16945 0.0918,0.221 0.0918,-0.80687 0.0918,0.62619 0.0918,-0.34312 0.18364,0.36942 0.0918,-0.17374 0.0918,0.53529 0.0918,-0.22893 0.0918,1.22263 0.0918,-0.48575 0.27546,3.04326 0.0918,0.5932 0.0918,-0.55165 0.0918,1.76174 0.0918,-1.69637 0.0918,1.49051 0.0918,-0.30424 0.0918,-2.74472 0.0918,0.4617 0.18363,-1.69822 0.27545,-1.32785 0.27545,-0.62176 0.0918,0.0892 0.0918,-0.61218 0.0918,0.13353 0.0918,0.50486 0.0918,-0.70867 0.0918,0.22964 0.18363,-0.1934 0.0918,0.0444 0.0918,-0.19377 0.0918,0.41627 0.0918,-0.77331 0.0918,0.28074 0.18363,-0.24376 0.0918,0.21813 0.18364,-0.14607 0.0918,0.20672 0.0918,-0.44069 0.18364,0.21028 0.0918,-0.24038 0.0918,0.50857 0.27545,-0.63513 0.0918,0.57245 0.0918,-0.34971 0.18363,0.13429 0.0918,-0.20938 0.0918,0.35263 0.18363,-0.40422 0.0918,0.31458 0.0918,-0.37241 0.0918,0.77257 0.18364,-0.45588 0.0918,0.13199 0.0918,-0.35836 0.0918,0.29102 0.0918,-0.3575 0.0918,0.35838 0.0918,-0.46942 0.0918,0.4616 0.18363,-0.31074 0.18364,0.18174 0.0918,-0.21478 0.0918,0.44251 0.18364,-0.38227 0.0918,0.12405 0.0918,-0.11206 0.0918,0.32729 0.0918,-0.0303 0.0918,-0.077 0.0918,-0.22437 0.0918,0.25009 0.18363,-0.25565 0.36727,0.002 0.0918,0.16297 0.18363,-0.29405 0.0918,0.37253 0.18364,-0.14942 0.0918,0.11324 0.0918,-0.25103 0.0918,0.42424 0.18363,-0.38818 0.18364,0.27349 0.18363,-0.44762 0.0918,0.31286 0.0918,-0.13167 0.18363,0.0862 0.0918,-0.0374 0.0918,0.10124 0.0918,-0.10835 0.0918,0.22612 0.0918,-0.27273 0.0918,0.57517 0.18363,-0.67801 0.18363,0.34585 0.0918,-0.4064 0.0918,0.35935 0.0918,-0.34019 0.0918,0.49621 0.0918,-0.2974 0.0918,0.0562 0.0918,0.0547 0.0918,-0.29093 0.0918,0.45811 0.0918,-0.0506 0.0918,-0.2873 0.0918,0.4194 0.0918,-0.34578 0.0918,0.0504 0.18363,-0.0939 0.0918,0.25566 0.0918,-0.32869 0.0918,0.49456 0.0918,-0.32288 0.18364,0.22914 0.0918,-0.0928 0.0918,-0.38363 0.0918,0.73969 0.0918,-0.41743 0.0918,0.32239 0.18364,-0.0745 0.0918,0.10161 0.0918,-0.1272 0.0918,0.36226 0.0918,-0.58233 0.0918,0.46204 0.0918,-0.16111 0.18364,0.22038 0.18363,0.11705 0.0918,0.3125 0.0918,-0.2522 0.0918,0.57741 0.0918,-0.21468 0.0918,0.55816 0.0918,-0.15648 0.0918,0.85365 0.0918,-0.37922 0.0918,1.2992 0.0918,-0.57168 0.18364,1.18131 0.0918,-0.45007 0.0918,0.58649 0.0918,-1.076 0.0918,0.61424 0.18363,-1.15129 0.18364,-0.65715 0.0918,0.0306 0.0918,-0.77521 0.0918,0.54193 0.0918,-0.23009 0.18363,0.26473 0.0918,-0.26813 0.0918,0.42442 0.0918,-0.28375 0.0918,0.80287 0.0918,-0.40214 0.0918,1.59925 0.0918,-0.55189 0.18364,2.12641 0.0918,0.20191 0.0918,1.53894 0.0918,-1.24209 0.0918,1.91419 0.0918,-0.31553 0.0918,-1.89665 0.0918,0.72706 0.0918,-0.19795 v 0"
           style="fill:none;stroke:#000000;stroke-width:0.35;stroke-linecap:square;stroke-linejoin:round;stroke-miterlimit:10;stroke-dasharray:none;stroke-opacity:1"
           id="path318" /></g></g><g
       id="g320"><g
         id="g322"
         clip-path="url(#clipPath326)"><path
           d="m 230.46615,247.0666 c 0.1989,0 0.38969,0.079 0.53033,0.21967 0.14065,0.14064 0.21967,0.33142 0.21967,0.53033 0,0.1989 -0.079,0.38968 -0.21967,0.53033 -0.14064,0.14064 -0.33143,0.21967 -0.53033,0.21967 -0.1989,0 -0.38968,-0.079 -0.53033,-0.21967 -0.14064,-0.14065 -0.21967,-0.33143 -0.21967,-0.53033 0,-0.19891 0.079,-0.38969 0.21967,-0.53033 0.14065,-0.14065 0.33143,-0.21967 0.53033,-0.21967 z"
           style="fill:#619fcc;fill-opacity:1;fill-rule:nonzero;stroke:#619fcc;stroke-width:1;stroke-linecap:butt;stroke-linejoin:round;stroke-miterlimit:10;stroke-dasharray:none;stroke-opacity:1"
           id="path328" /></g></g><g
       id="g330"><g
         id="g332"
         transform="translate(346.05957,246.97125)"><text
           transform="matrix(1,0,0,-1,2.5,0)"
           style="font-variant:normal;font-weight:bold;font-size:10px;font-family:Garamond;-inkscape-font-specification:Garamond-Bold;writing-mode:lr-tb;fill:#000000;fill-opacity:1;fill-rule:nonzero;stroke:none"
           id="text336"><tspan
             x="0 3.96 6.5599999 11.25 15.94 18.440001 22.77 27.98 30.58 33.700001 37.869999 40.369999 45.889999"
             y="0"
             sodipodi:role="line"
             id="tspan334">1.39 volts pp</tspan></text></g></g><g
       id="g338"><g
         id="g340"
         clip-path="url(#clipPath344)"><path
           d="M 230.46615,231.08635 V 241.2471"
           style="fill:none;stroke:#000000;stroke-width:0.25;stroke-linecap:square;stroke-linejoin:round;stroke-miterlimit:10;stroke-dasharray:none;stroke-opacity:1"
           id="path346" /></g></g><g
       id="g348"><g
         id="g350"
         clip-path="url(#clipPath354)"><path
           d="M 340.55513,231.08635 V 241.2471"
           style="fill:none;stroke:#000000;stroke-width:0.25;stroke-linecap:square;stroke-linejoin:round;stroke-miterlimit:10;stroke-dasharray:none;stroke-opacity:1"
           id="path356" /></g></g><g
       id="g358"><g
         id="g360"
         clip-path="url(#clipPath364)"><path
           d="m 230.46615,233.1377 0.86684,5.81428 0.86685,-2.67754 0.86684,3.36799 0.86684,-7.10279 0.86684,-0.58181 0.86684,1.24738 0.86685,2.58855 0.86684,1.19061 0.86684,2.19014 0.86684,-6.19305 0.86685,3.52265 0.86684,1.92423 0.86684,-3.37638 0.86684,0.69631 0.86685,-3.70018 0.86684,0.67105 0.86684,6.16015 0.86684,-2.8234 0.86684,-2.28749 0.86685,4.93333 0.86684,-4.43456 0.86684,4.01645 0.86684,0.63307 0.86685,-5.51737 0.86684,0.77924 0.86684,3.69283 0.86684,-1.38099 0.86685,0.96307 0.86684,-3.90023 0.86684,3.90239 0.86684,0.95974 0.86684,0.24849 0.86685,-5.79089 0.86684,6.2856 0.86684,-5.70362 0.86684,-1.02859 0.86685,7.28119 0.86684,-7.92358 0.86684,8.0566 0.86684,-6.15179 0.86685,3.43274 0.86684,0.68243 0.86684,-1.43225 0.86684,1.11183 0.86684,-0.39754 0.86685,-5.52145 0.86684,3.71988 0.86684,-0.22091 0.86684,0.21226 0.86685,2.54023 0.86684,-0.19711 0.86684,-0.7223 0.86684,-2.12431 0.86685,0.28955 0.86684,-1.84112 0.86684,5.52226 0.86684,-0.55394 0.86685,-6.64082 0.86684,4.30245 0.86684,3.41165 1.73368,-2.44546 0.86685,1.89811 0.86684,-4.88022 0.86684,3.24966 0.86684,-0.45635 0.86685,-1.3583 0.86684,4.37716 0.86684,-7.04729 0.86684,2.78111 0.86685,1.59925 1.73368,-5.21525 0.86684,0.50538 0.86684,1.8325 0.86685,-1.33557 0.86684,3.18914 0.86684,0.60853 0.86684,-2.57727 0.86685,4.7873 1.73368,-1.00369 0.86684,-0.15544 0.86685,-0.59444 0.86684,-4.05213 0.86684,5.9534 0.86684,-4.08625 0.86684,-2.95755 0.86685,1.65142 0.86684,4.17297 0.86684,-1.0139 0.86684,1.00103 0.86685,-4.48334 0.86684,-0.4456 0.86684,6.24027 0.86684,-2.25505 0.86685,0.9221 0.86684,-3.63378 0.86684,5.73873 0.86684,-0.40178 0.86684,-6.07315 0.86685,6.1609 0.86684,-5.22812 0.86684,5.53703 0.86684,-1.63031 0.86685,-4.57352 0.86684,5.69311 0.86684,-0.29598 0.86684,-0.66419 0.86685,1.53523 0.86684,-7.91596 0.86684,6.86425 0.86684,-2.58989 0.86685,2.03704 0.86684,-2.7693 0.86684,3.94404 0.86684,-3.56951 0.86684,0.82876 0.86685,-0.53655 0.86684,0.81679 0.86684,1.65371 0.86684,-5.41853 0.86685,5.22346 1.73368,-3.33324 0.86684,-1.02972 0.86685,1.81305 v 0"
           style="fill:none;stroke:#000000;stroke-width:0.35;stroke-linecap:square;stroke-linejoin:round;stroke-miterlimit:10;stroke-dasharray:none;stroke-opacity:1"
           id="path366" /></g></g><g
       id="g368"><g
         id="g370"
         clip-path="url(#clipPath374)"><path
           d="m 230.46615,232.3877 c 0.1989,0 0.38969,0.079 0.53033,0.21967 0.14065,0.14065 0.21967,0.33143 0.21967,0.53033 0,0.19891 -0.079,0.38969 -0.21967,0.53033 -0.14064,0.14065 -0.33143,0.21967 -0.53033,0.21967 -0.1989,0 -0.38968,-0.079 -0.53033,-0.21967 -0.14064,-0.14064 -0.21967,-0.33142 -0.21967,-0.53033 0,-0.1989 0.079,-0.38968 0.21967,-0.53033 0.14065,-0.14064 0.33143,-0.21967 0.53033,-0.21967 z"
           style="fill:#619fcc;fill-opacity:1;fill-rule:nonzero;stroke:#619fcc;stroke-width:1;stroke-linecap:butt;stroke-linejoin:round;stroke-miterlimit:10;stroke-dasharray:none;stroke-opacity:1"
           id="path376" /></g></g><g
       id="g378"><g
         id="g380"
         transform="translate(346.05957,234.7471)"><text
           transform="matrix(1,0,0,-1,2.5,0)"
           style="font-variant:normal;font-weight:bold;font-size:10px;font-family:Garamond;-inkscape-font-specification:Garamond-Bold;writing-mode:lr-tb;fill:#000000;fill-opacity:1;fill-rule:nonzero;stroke:none"
           id="text384"><tspan
             x="0 5.0999999 10.62 15.41 18.94375 24.25375 26.85375 29.66375 35.18375 39.873749 42.373749"
             y="0"
             sodipodi:role="line"
             id="tspan382">Sparkline 1</tspan></text></g></g><g
       id="g386"><g
         id="g388"
         clip-path="url(#clipPath392)"><path
           d="m 230.46615,218.89346 v 10.16075"
           style="fill:none;stroke:#000000;stroke-width:0.25;stroke-linecap:square;stroke-linejoin:round;stroke-miterlimit:10;stroke-dasharray:none;stroke-opacity:1"
           id="path394" /></g></g><g
       id="g396"><g
         id="g398"
         clip-path="url(#clipPath402)"><path
           d="m 340.55513,218.89346 v 10.16075"
           style="fill:none;stroke:#000000;stroke-width:0.25;stroke-linecap:square;stroke-linejoin:round;stroke-miterlimit:10;stroke-dasharray:none;stroke-opacity:1"
           id="path404" /></g></g><g
       id="g406"><g
         id="g408"
         clip-path="url(#clipPath412)"><path
           d="m 230.46615,220.44987 0.86684,1.55373 0.86685,3.18969 0.86684,0.12397 0.86684,-4.50755 0.86684,3.56827 0.86684,-3.91126 0.86685,1.59161 0.86684,-2.20535 0.86684,6.32084 0.86684,-1.84866 0.86685,-2.18841 0.86684,5.41755 0.86684,-1.133 0.86684,-4.03764 1.73369,-0.57191 0.86684,-1.39387 0.86684,-0.98327 0.86684,0.80907 0.86685,2.72192 0.86684,-1.90125 0.86684,2.48239 0.86684,-1.38212 0.86685,0.35076 0.86684,-0.83759 0.86684,4.95312 0.86684,-4.42311 0.86685,-1.08895 0.86684,1.72275 0.86684,4.1082 0.86684,-0.40228 0.86684,0.14977 0.86685,-6.63869 0.86684,5.63588 0.86684,-2.79779 0.86684,3.70119 0.86685,-6.09546 0.86684,5.31268 0.86684,-1.69412 0.86684,1.32536 0.86685,2.22015 0.86684,-7.32473 0.86684,3.96833 0.86684,-3.68178 0.86684,1.00592 0.86685,1.94703 0.86684,-3.9442 0.86684,-0.14665 0.86684,2.61441 0.86685,-2.74951 0.86684,8.23461 0.86684,-4.19621 0.86684,4.19475 0.86685,-6.70089 0.86684,5.38257 0.86684,-2.22241 0.86684,2.56721 0.86685,-2.65432 0.86684,2.74724 0.86684,-5.1267 0.86684,1.766 0.86684,2.4036 0.86685,-4.09488 0.86684,-0.005 0.86684,4.64334 0.86684,-6.01678 0.86685,-0.73581 0.86684,0.86029 0.86684,1.08736 0.86684,5.43838 0.86685,-5.71626 0.86684,2.13609 0.86684,-3.22779 0.86684,4.74807 0.86684,-2.87615 0.86685,1.23705 0.86684,4.1074 0.86684,-4.83232 0.86684,4.41138 0.86685,-5.93324 0.86684,-1.27066 0.86684,3.79031 0.86684,-0.43728 0.86685,-0.083 0.86684,-1.69477 0.86684,3.43996 0.86684,-5.29911 0.86684,5.96521 1.73369,-3.12288 0.86684,3.61332 0.86684,-4.3478 0.86685,5.43122 1.73368,-3.76742 0.86684,0.56615 0.86685,-3.51046 0.86684,3.86952 0.86684,3.06089 0.86684,-2.56173 0.86684,-0.6306 0.86685,2.29019 0.86684,0.3086 0.86684,-3.725 0.86684,0.3063 0.86685,2.16073 0.86684,1.67518 0.86684,-1.91205 0.86684,1.25814 0.86685,-2.21132 0.86684,0.48505 0.86684,1.93516 0.86684,0.0272 0.86685,-5.06245 0.86684,3.1062 0.86684,1.90412 0.86684,0.50686 0.86684,-6.80172 0.86685,2.67714 0.86684,0.18849 0.86684,-2.40714 0.86684,-0.76919 0.86685,4.1354 0.86684,-1.20339 0.86684,1.99155 0.86684,-2.27629 0.86685,2.6599 v 0"
           style="fill:none;stroke:#000000;stroke-width:0.35;stroke-linecap:square;stroke-linejoin:round;stroke-miterlimit:10;stroke-dasharray:none;stroke-opacity:1"
           id="path414" /></g></g><g
       id="g416"><g
         id="g418"
         clip-path="url(#clipPath422)"><path
           d="m 230.46615,219.69987 c 0.1989,0 0.38969,0.079 0.53033,0.21967 0.14065,0.14065 0.21967,0.33143 0.21967,0.53033 0,0.1989 -0.079,0.38969 -0.21967,0.53033 -0.14064,0.14065 -0.33143,0.21967 -0.53033,0.21967 -0.1989,0 -0.38968,-0.079 -0.53033,-0.21967 -0.14064,-0.14064 -0.21967,-0.33143 -0.21967,-0.53033 0,-0.1989 0.079,-0.38968 0.21967,-0.53033 0.14065,-0.14064 0.33143,-0.21967 0.53033,-0.21967 z"
           style="fill:#619fcc;fill-opacity:1;fill-rule:nonzero;stroke:#619fcc;stroke-width:1;stroke-linecap:butt;stroke-linejoin:round;stroke-miterlimit:10;stroke-dasharray:none;stroke-opacity:1"
           id="path424" /></g></g><g
       id="g426"><g
         id="g428"
         transform="translate(346.05957,222.55421)"><text
           transform="matrix(1,0,0,-1,2.5,0)"
           style="font-variant:normal;font-weight:bold;font-size:10px;font-family:Garamond;-inkscape-font-specification:Garamond-Bold;writing-mode:lr-tb;fill:#000000;fill-opacity:1;fill-rule:nonzero;stroke:none"
           id="text432"><tspan
             x="0 5.0999999 10.62 15.41 18.94375 24.25375 26.85375 29.66375 35.18375 39.873749 42.373749"
             y="0"
             sodipodi:role="line"
             id="tspan430">Sparkline 2</tspan></text></g></g><g
       id="g434"><g
         id="g436"
         clip-path="url(#clipPath440)"><path
           d="m 230.46615,206.70056 v 10.16075"
           style="fill:none;stroke:#000000;stroke-width:0.25;stroke-linecap:square;stroke-linejoin:round;stroke-miterlimit:10;stroke-dasharray:none;stroke-opacity:1"
           id="path442" /></g></g><g
       id="g444"><g
         id="g446"
         clip-path="url(#clipPath450)"><path
           d="m 340.55513,206.70056 v 10.16075"
           style="fill:none;stroke:#000000;stroke-width:0.25;stroke-linecap:square;stroke-linejoin:round;stroke-miterlimit:10;stroke-dasharray:none;stroke-opacity:1"
           id="path452" /></g></g><g
       id="g454"><g
         id="g456"
         clip-path="url(#clipPath460)"><path
           d="m 230.46615,214.59425 1.73369,0.24966 0.86684,-5.22595 0.86684,-0.212 0.86684,3.98308 0.86684,0.91785 0.86685,-1.11855 0.86684,-0.39242 0.86684,-2.19196 0.86684,4.53487 0.86685,-6.89591 0.86684,0.86971 0.86684,5.22458 0.86684,-2.96157 0.86685,-0.9263 0.86684,-2.13281 0.86684,6.26654 0.86684,-6.99747 0.86684,7.88819 0.86685,-4.88157 0.86684,3.38648 0.86684,-3.23547 0.86684,-1.79929 0.86685,6.2561 0.86684,-0.11012 0.86684,-4.86057 0.86684,-2.91874 0.86685,2.44268 0.86684,1.50249 0.86684,-0.13283 0.86684,2.92457 0.86684,-5.61084 0.86685,0.75424 0.86684,-0.83488 0.86684,4.60412 0.86684,0.26816 0.86685,-5.10655 0.86684,7.08507 0.86684,-1.36542 0.86684,-0.24931 0.86685,-5.31144 0.86684,0.82139 0.86684,0.26382 0.86684,5.26741 0.86684,-4.98825 0.86685,3.6959 0.86684,-0.52597 0.86684,-3.36665 0.86684,4.2234 0.86685,-4.96862 0.86684,4.9099 0.86684,-0.57651 1.73369,-5.87408 0.86684,5.50693 1.73368,-2.69088 0.86685,3.86806 0.86684,0.0803 0.86684,-5.33436 0.86684,0.41375 0.86684,1.76003 0.86685,2.58092 0.86684,-2.96456 0.86684,-0.34711 0.86684,-2.3914 0.86685,3.14877 0.86684,0.1896 1.73368,-3.37978 0.86685,2.34214 0.86684,-1.77413 0.86684,1.25014 0.86684,-1.90746 0.86684,4.14563 0.86685,-1.82761 0.86684,-2.43341 0.86684,2.57997 0.86684,2.13505 0.86685,1.83054 0.86684,-2.0119 0.86684,3.00971 0.86684,-7.36558 0.86685,6.01448 0.86684,-1.83528 0.86684,-2.99502 1.73368,4.28587 0.86685,-5.47197 0.86684,2.31044 0.86684,0.23627 0.86684,2.06962 0.86685,-3.32559 0.86684,-0.0347 0.86684,2.71449 0.86684,-3.50408 0.86685,5.31972 0.86684,0.14345 0.86684,1.12335 0.86684,-3.97066 0.86684,4.67434 0.86685,-5.42585 0.86684,0.87707 0.86684,-2.58022 0.86684,1.02408 0.86685,0.31649 0.86684,5.39078 0.86684,-0.82845 0.86684,-1.50315 0.86685,-5.30605 0.86684,4.69266 0.86684,-1.95599 0.86684,-1.65704 0.86685,0.87803 0.86684,3.32046 0.86684,-4.52578 0.86684,0.57414 0.86684,-0.22811 0.86685,3.36654 0.86684,-2.73364 0.86684,-0.32257 0.86684,-1.42426 0.86685,1.74394 0.86684,2.37669 0.86684,-0.68614 0.86684,0.53884 0.86685,-0.0719 v 0"
           style="fill:none;stroke:#000000;stroke-width:0.35;stroke-linecap:square;stroke-linejoin:round;stroke-miterlimit:10;stroke-dasharray:none;stroke-opacity:1"
           id="path462" /></g></g><g
       id="g464"><g
         id="g466"
         clip-path="url(#clipPath470)"><path
           d="m 230.46615,213.84425 c 0.1989,0 0.38969,0.079 0.53033,0.21967 0.14065,0.14064 0.21967,0.33143 0.21967,0.53033 0,0.1989 -0.079,0.38968 -0.21967,0.53033 -0.14064,0.14064 -0.33143,0.21967 -0.53033,0.21967 -0.1989,0 -0.38968,-0.079 -0.53033,-0.21967 -0.14064,-0.14065 -0.21967,-0.33143 -0.21967,-0.53033 0,-0.1989 0.079,-0.38969 0.21967,-0.53033 0.14065,-0.14065 0.33143,-0.21967 0.53033,-0.21967 z"
           style="fill:#619fcc;fill-opacity:1;fill-rule:nonzero;stroke:#619fcc;stroke-width:1;stroke-linecap:butt;stroke-linejoin:round;stroke-miterlimit:10;stroke-dasharray:none;stroke-opacity:1"
           id="path472" /></g></g><g
       id="g474"><g
         id="g476"
         transform="translate(346.05957,210.36131)"><text
           transform="matrix(1,0,0,-1,2.5,0)"
           style="font-variant:normal;font-weight:bold;font-size:10px;font-family:Garamond;-inkscape-font-specification:Garamond-Bold;writing-mode:lr-tb;fill:#000000;fill-opacity:1;fill-rule:nonzero;stroke:none"
           id="text480"><tspan
             x="0 5.0999999 10.62 15.41 18.94375 24.25375 26.85375 29.66375 35.18375 39.873749 42.373749"
             y="0"
             sodipodi:role="line"
             id="tspan478">Sparkline 3</tspan></text></g></g><g
       id="g482"><g
         id="g484"
         clip-path="url(#clipPath488)"><path
           d="m 230.46615,194.50766 v 10.16075"
           style="fill:none;stroke:#000000;stroke-width:0.25;stroke-linecap:square;stroke-linejoin:round;stroke-miterlimit:10;stroke-dasharray:none;stroke-opacity:1"
           id="path490" /></g></g><g
       id="g492"><g
         id="g494"
         clip-path="url(#clipPath498)"><path
           d="m 340.55513,194.50766 v 10.16075"
           style="fill:none;stroke:#000000;stroke-width:0.25;stroke-linecap:square;stroke-linejoin:round;stroke-miterlimit:10;stroke-dasharray:none;stroke-opacity:1"
           id="path500" /></g></g><g
       id="g502"><g
         id="g504"
         clip-path="url(#clipPath508)"><path
           d="m 230.46615,197.20766 0.86684,3.01033 0.86685,-5.24847 0.86684,5.08757 0.86684,-1.77452 0.86684,-1.01222 0.86684,-0.43356 0.86685,6.04532 0.86684,-6.66301 0.86684,1.59277 0.86684,1.90828 0.86685,-1.99799 0.86684,0.49722 0.86684,2.69685 0.86684,-1.753 0.86685,3.64339 0.86684,-5.68765 0.86684,-1.72973 0.86684,5.42138 0.86684,-0.29447 0.86685,1.37995 0.86684,-3.13829 0.86684,4.47773 0.86684,-2.99925 0.86685,-4.63229 0.86684,4.99194 0.86684,-3.54685 0.86684,5.27377 0.86685,-5.21326 0.86684,1.88275 0.86684,-3.91752 0.86684,7.81931 0.86684,-3.44616 0.86685,0.0108 0.86684,1.45347 0.86684,-0.69753 0.86684,2.12815 0.86685,0.69577 0.86684,-2.08481 0.86684,0.1352 0.86684,-2.94636 0.86685,2.27214 0.86684,1.29867 0.86684,-3.71075 0.86684,1.35371 0.86684,-1.27575 0.86685,1.90333 0.86684,0.0594 0.86684,-1.78318 0.86684,-3.11239 0.86685,7.54869 0.86684,-4.54596 0.86684,4.46105 0.86684,-1.95398 0.86685,-3.57955 0.86684,3.27561 0.86684,-1.70314 0.86684,2.25186 0.86685,-2.96069 0.86684,-0.43831 0.86684,-2.43994 0.86684,1.41739 0.86684,2.84841 0.86685,-3.30716 1.73368,-0.92654 0.86684,2.76817 0.86685,1.32647 0.86684,-2.58088 1.73368,2.32891 0.86685,-2.53196 0.86684,6.82051 0.86684,-7.74242 0.86684,3.74471 0.86684,1.61928 0.86685,-4.55112 0.86684,2.2084 0.86684,4.58001 0.86684,-0.29352 0.86685,-0.6677 0.86684,0.97071 0.86684,-0.12437 0.86684,0.30838 0.86685,-3.57522 0.86684,1.70386 0.86684,-1.17433 0.86684,2.47333 0.86684,-2.3035 1.73369,1.62058 0.86684,-2.7791 0.86684,-1.34561 0.86685,5.23344 0.86684,-2.99032 0.86684,-1.44995 0.86684,-0.23915 0.86685,3.73361 0.86684,-4.01796 0.86684,4.74044 0.86684,-6.07447 0.86684,1.17498 0.86685,0.78576 0.86684,-0.59393 0.86684,3.78763 1.73369,-6.94083 0.86684,6.87082 0.86684,-2.83442 0.86684,-2.06077 0.86685,4.97513 0.86684,-1.57324 0.86684,-2.59791 0.86684,3.65833 0.86685,-1.31681 0.86684,1.07397 0.86684,-5.52204 0.86684,3.36373 1.73369,-2.8721 0.86684,6.96883 0.86684,-2.69659 0.86684,-4.44861 0.86685,0.94052 0.86684,3.04064 0.86684,-4.75832 0.86684,7.72456 0.86685,-6.35249 v 0"
           style="fill:none;stroke:#000000;stroke-width:0.35;stroke-linecap:square;stroke-linejoin:round;stroke-miterlimit:10;stroke-dasharray:none;stroke-opacity:1"
           id="path510" /></g></g><g
       id="g512"><g
         id="g514"
         clip-path="url(#clipPath518)"><path
           d="m 230.46615,196.45766 c 0.1989,0 0.38969,0.079 0.53033,0.21967 0.14065,0.14065 0.21967,0.33143 0.21967,0.53033 0,0.19891 -0.079,0.38969 -0.21967,0.53033 -0.14064,0.14065 -0.33143,0.21967 -0.53033,0.21967 -0.1989,0 -0.38968,-0.079 -0.53033,-0.21967 -0.14064,-0.14064 -0.21967,-0.33142 -0.21967,-0.53033 0,-0.1989 0.079,-0.38968 0.21967,-0.53033 0.14065,-0.14064 0.33143,-0.21967 0.53033,-0.21967 z"
           style="fill:#619fcc;fill-opacity:1;fill-rule:nonzero;stroke:#619fcc;stroke-width:1;stroke-linecap:butt;stroke-linejoin:round;stroke-miterlimit:10;stroke-dasharray:none;stroke-opacity:1"
           id="path520" /></g></g><g
       id="g522"><g
         id="g524"
         transform="translate(346.05957,198.16841)"><text
           transform="matrix(1,0,0,-1,2.5,0)"
           style="font-variant:normal;font-weight:bold;font-size:10px;font-family:Garamond;-inkscape-font-specification:Garamond-Bold;writing-mode:lr-tb;fill:#000000;fill-opacity:1;fill-rule:nonzero;stroke:none"
           id="text528"><tspan
             x="0 5.0999999 10.62 15.41 18.94375 24.25375 26.85375 29.66375 35.18375 39.873749 42.373749"
             y="0"
             sodipodi:role="line"
             id="tspan526">Sparkline 4</tspan></text></g><g
         id="g530"
         transform="translate(175.14139,184.36164)"><text
           transform="scale(1,-1)"
           style="font-variant:normal;font-weight:normal;font-size:8.33px;font-family:Garamond;-inkscape-font-specification:Garamond;writing-mode:lr-tb;fill:#000000;fill-opacity:1;fill-rule:nonzero;stroke:none"
           id="text534"><tspan
             x="0 3.90677 7.81354 11.72031 15.62708 18.22604 22.132811 26.039579 28.63854 32.545311 36.45208 38.53458 42.441349 46.348122 48.17239 52.079159 55.985931 57.8102 61.716969 65.623741 67.448013 71.354782 75.261551 79.16832 81.767281 85.674049 89.580818 91.40509 95.311859"
             y="0"
             sodipodi:role="line"
             id="tspan532">2021-12-09 05:38:16.775-08:00</tspan></text></g><g
         id="g536"
         transform="translate(296.23926,184.36164)"><text
           transform="scale(1,-1)"
           style="font-variant:normal;font-weight:normal;font-size:8.33px;font-family:Garamond;-inkscape-font-specification:Garamond;writing-mode:lr-tb;fill:#000000;fill-opacity:1;fill-rule:nonzero;stroke:none"
           id="text540"><tspan
             x="0 3.90677 7.81354 11.72031 15.62708 18.22604 22.132811 26.039579 28.63854 32.545311 36.45208 38.53458 42.441349 46.348122 48.17239 52.079159 55.985931 57.8102 61.716969 65.623741 67.448013 71.354782 75.261551 79.16832 81.767281 85.674049 89.580818 91.40509 95.311859"
             y="0"
             sodipodi:role="line"
             id="tspan538">2021-12-09 05:38:17.317-08:00</tspan></text></g></g></g></svg>
